<mxfile host="65bd71144e">
    <diagram id="gzGWxYLW0LsG8s33BjYR" name="Algorithm">
        <mxGraphModel dx="1714" dy="1150" grid="1" gridSize="10" guides="1" tooltips="1" connect="1" arrows="1" fold="1" page="1" pageScale="1" pageWidth="850" pageHeight="1100" math="0" shadow="0">
            <root>
                <mxCell id="P_763lVRbbRgGYn9D_8V-0"/>
                <mxCell id="P_763lVRbbRgGYn9D_8V-1" parent="P_763lVRbbRgGYn9D_8V-0"/>
                <mxCell id="EhgCr9Bk9AYyVQ0TSEqv-0" value="IRPManager" style="swimlane;fontStyle=1;align=center;verticalAlign=top;childLayout=stackLayout;horizontal=1;startSize=26;horizontalStack=0;resizeParent=1;resizeParentMax=0;resizeLast=0;collapsible=1;marginBottom=0;fillColor=#008a00;strokeColor=#005700;fontColor=#ffffff;" parent="P_763lVRbbRgGYn9D_8V-1" vertex="1">
                    <mxGeometry x="80" y="80" width="210" height="270" as="geometry"/>
                </mxCell>
                <mxCell id="EhgCr9Bk9AYyVQ0TSEqv-1" value="Purpose:&#10;Perform algorithm related methods" style="text;strokeColor=none;fillColor=none;align=left;verticalAlign=top;spacingLeft=4;spacingRight=4;overflow=hidden;rotatable=0;points=[[0,0.5],[1,0.5]];portConstraint=eastwest;" parent="EhgCr9Bk9AYyVQ0TSEqv-0" vertex="1">
                    <mxGeometry y="26" width="210" height="64" as="geometry"/>
                </mxCell>
                <mxCell id="EhgCr9Bk9AYyVQ0TSEqv-2" value="" style="line;strokeWidth=1;fillColor=none;align=left;verticalAlign=middle;spacingTop=-1;spacingLeft=3;spacingRight=3;rotatable=0;labelPosition=right;points=[];portConstraint=eastwest;" parent="EhgCr9Bk9AYyVQ0TSEqv-0" vertex="1">
                    <mxGeometry y="90" width="210" height="8" as="geometry"/>
                </mxCell>
                <mxCell id="EhgCr9Bk9AYyVQ0TSEqv-3" value="Methods related to algorithm:&#10;&#10;void IRPManager::offloadUserKPIs()&#10;Self-Healing algorithm based on KPIs&#10;- RSRP&#10;&#10;void IRPManager::finishMovingUsers()&#10;Algorithm that moves users to closestÂ &#10;base station. In order to run simulations&#10;with no self healing" style="text;strokeColor=none;fillColor=none;align=left;verticalAlign=top;spacingLeft=4;spacingRight=4;overflow=hidden;rotatable=0;points=[[0,0.5],[1,0.5]];portConstraint=eastwest;" parent="EhgCr9Bk9AYyVQ0TSEqv-0" vertex="1">
                    <mxGeometry y="98" width="210" height="172" as="geometry"/>
                </mxCell>
                <mxCell id="EhgCr9Bk9AYyVQ0TSEqv-4" value="Algorithm Related Classes" style="text;strokeColor=none;fillColor=none;html=1;fontSize=24;fontStyle=1;verticalAlign=middle;align=center;" parent="P_763lVRbbRgGYn9D_8V-1" vertex="1">
                    <mxGeometry x="375" y="20" width="100" height="40" as="geometry"/>
                </mxCell>
                <mxCell id="bVzltMthEKLoWDJMZpQD-8" value="BaseStation" style="swimlane;fontStyle=1;align=center;verticalAlign=top;childLayout=stackLayout;horizontal=1;startSize=26;horizontalStack=0;resizeParent=1;resizeParentMax=0;resizeLast=0;collapsible=1;marginBottom=0;fillColor=#008a00;strokeColor=#005700;fontColor=#ffffff;" parent="P_763lVRbbRgGYn9D_8V-1" vertex="1">
                    <mxGeometry x="320" y="80" width="280" height="270" as="geometry"/>
                </mxCell>
                <mxCell id="bVzltMthEKLoWDJMZpQD-9" value="Purpose:&#10;Perform transmissions between BaseStations&#10;and User Equipments&#10;&#10;Perform power calculation (based on SNR)&#10;Calculate KPIs" style="text;strokeColor=none;fillColor=none;align=left;verticalAlign=top;spacingLeft=4;spacingRight=4;overflow=hidden;rotatable=0;points=[[0,0.5],[1,0.5]];portConstraint=eastwest;" parent="bVzltMthEKLoWDJMZpQD-8" vertex="1">
                    <mxGeometry y="26" width="280" height="94" as="geometry"/>
                </mxCell>
                <mxCell id="bVzltMthEKLoWDJMZpQD-10" value="" style="line;strokeWidth=1;fillColor=none;align=left;verticalAlign=middle;spacingTop=-1;spacingLeft=3;spacingRight=3;rotatable=0;labelPosition=right;points=[];portConstraint=eastwest;" parent="bVzltMthEKLoWDJMZpQD-8" vertex="1">
                    <mxGeometry y="120" width="280" height="8" as="geometry"/>
                </mxCell>
                <mxCell id="bVzltMthEKLoWDJMZpQD-11" value="Methods related to algorithm:&#10;&#10;bool BaseStation::Update()&#10;- Calculate KPIs&#10;&#10;" style="text;strokeColor=none;fillColor=none;align=left;verticalAlign=top;spacingLeft=4;spacingRight=4;overflow=hidden;rotatable=0;points=[[0,0.5],[1,0.5]];portConstraint=eastwest;" parent="bVzltMthEKLoWDJMZpQD-8" vertex="1">
                    <mxGeometry y="128" width="280" height="142" as="geometry"/>
                </mxCell>
                <mxCell id="bVzltMthEKLoWDJMZpQD-12" value="Algorithm GUI Related Classes" style="text;strokeColor=none;fillColor=none;html=1;fontSize=24;fontStyle=1;verticalAlign=middle;align=center;" parent="P_763lVRbbRgGYn9D_8V-1" vertex="1">
                    <mxGeometry x="375" y="420" width="100" height="40" as="geometry"/>
                </mxCell>
                <mxCell id="TqJkxWrmb4IKA28fTYH4-0" value="Simulator" style="swimlane;fontStyle=1;align=center;verticalAlign=top;childLayout=stackLayout;horizontal=1;startSize=26;horizontalStack=0;resizeParent=1;resizeParentMax=0;resizeLast=0;collapsible=1;marginBottom=0;fillColor=#008a00;strokeColor=#005700;fontColor=#ffffff;" parent="P_763lVRbbRgGYn9D_8V-1" vertex="1">
                    <mxGeometry x="70" y="530" width="210" height="270" as="geometry"/>
                </mxCell>
                <mxCell id="TqJkxWrmb4IKA28fTYH4-1" value="Purpose:&#10;Creating KPI parameters to be able&#10;to be accessed by other classes" style="text;strokeColor=none;fillColor=none;align=left;verticalAlign=top;spacingLeft=4;spacingRight=4;overflow=hidden;rotatable=0;points=[[0,0.5],[1,0.5]];portConstraint=eastwest;" parent="TqJkxWrmb4IKA28fTYH4-0" vertex="1">
                    <mxGeometry y="26" width="210" height="64" as="geometry"/>
                </mxCell>
                <mxCell id="TqJkxWrmb4IKA28fTYH4-2" value="" style="line;strokeWidth=1;fillColor=none;align=left;verticalAlign=middle;spacingTop=-1;spacingLeft=3;spacingRight=3;rotatable=0;labelPosition=right;points=[];portConstraint=eastwest;" parent="TqJkxWrmb4IKA28fTYH4-0" vertex="1">
                    <mxGeometry y="90" width="210" height="8" as="geometry"/>
                </mxCell>
                <mxCell id="TqJkxWrmb4IKA28fTYH4-3" value="Methods related to algorithm:&#10;&#10;Getters / Setters&#10;- For the KPI related properties such&#10;as RSRPThreshold" style="text;strokeColor=none;fillColor=none;align=left;verticalAlign=top;spacingLeft=4;spacingRight=4;overflow=hidden;rotatable=0;points=[[0,0.5],[1,0.5]];portConstraint=eastwest;" parent="TqJkxWrmb4IKA28fTYH4-0" vertex="1">
                    <mxGeometry y="98" width="210" height="172" as="geometry"/>
                </mxCell>
                <mxCell id="bVzltMthEKLoWDJMZpQD-17" value="GUIDataContainer" style="swimlane;fontStyle=1;align=center;verticalAlign=top;childLayout=stackLayout;horizontal=1;startSize=26;horizontalStack=0;resizeParent=1;resizeParentMax=0;resizeLast=0;collapsible=1;marginBottom=0;fillColor=#008a00;strokeColor=#005700;fontColor=#ffffff;" parent="P_763lVRbbRgGYn9D_8V-1" vertex="1">
                    <mxGeometry x="320" y="530" width="210" height="270" as="geometry"/>
                </mxCell>
                <mxCell id="bVzltMthEKLoWDJMZpQD-18" value="Purpose:&#10;Set default values for the simulator" style="text;strokeColor=none;fillColor=none;align=left;verticalAlign=top;spacingLeft=4;spacingRight=4;overflow=hidden;rotatable=0;points=[[0,0.5],[1,0.5]];portConstraint=eastwest;" parent="bVzltMthEKLoWDJMZpQD-17" vertex="1">
                    <mxGeometry y="26" width="210" height="64" as="geometry"/>
                </mxCell>
                <mxCell id="bVzltMthEKLoWDJMZpQD-19" value="" style="line;strokeWidth=1;fillColor=none;align=left;verticalAlign=middle;spacingTop=-1;spacingLeft=3;spacingRight=3;rotatable=0;labelPosition=right;points=[];portConstraint=eastwest;" parent="bVzltMthEKLoWDJMZpQD-17" vertex="1">
                    <mxGeometry y="90" width="210" height="8" as="geometry"/>
                </mxCell>
                <mxCell id="bVzltMthEKLoWDJMZpQD-20" value="Methods related to algorithm:&#10;&#10;None (initilizes values for simulator)" style="text;align=left;verticalAlign=top;spacingLeft=4;spacingRight=4;overflow=hidden;rotatable=0;points=[[0,0.5],[1,0.5]];portConstraint=eastwest;" parent="bVzltMthEKLoWDJMZpQD-17" vertex="1">
                    <mxGeometry y="98" width="210" height="172" as="geometry"/>
                </mxCell>
                <mxCell id="bVzltMthEKLoWDJMZpQD-25" value="GUIMain" style="swimlane;fontStyle=1;align=center;verticalAlign=top;childLayout=stackLayout;horizontal=1;startSize=26;horizontalStack=0;resizeParent=1;resizeParentMax=0;resizeLast=0;collapsible=1;marginBottom=0;fillColor=#008a00;strokeColor=#005700;fontColor=#ffffff;" parent="P_763lVRbbRgGYn9D_8V-1" vertex="1">
                    <mxGeometry x="600" y="530" width="220" height="268" as="geometry"/>
                </mxCell>
                <mxCell id="bVzltMthEKLoWDJMZpQD-26" value="Purpose:&#10;Creates GUI simulation application.&#10;Gives options for user to save/&#10;analyze data" style="text;strokeColor=none;fillColor=none;align=left;verticalAlign=top;spacingLeft=4;spacingRight=4;overflow=hidden;rotatable=0;points=[[0,0.5],[1,0.5]];portConstraint=eastwest;" parent="bVzltMthEKLoWDJMZpQD-25" vertex="1">
                    <mxGeometry y="26" width="220" height="74" as="geometry"/>
                </mxCell>
                <mxCell id="bVzltMthEKLoWDJMZpQD-27" value="" style="line;strokeWidth=1;fillColor=none;align=left;verticalAlign=middle;spacingTop=-1;spacingLeft=3;spacingRight=3;rotatable=0;labelPosition=right;points=[];portConstraint=eastwest;" parent="bVzltMthEKLoWDJMZpQD-25" vertex="1">
                    <mxGeometry y="100" width="220" height="8" as="geometry"/>
                </mxCell>
                <mxCell id="bVzltMthEKLoWDJMZpQD-28" value="Methods related to algorithm:&#10;&#10;Most are implemented inside of&#10;GUIMain&#10;&#10;&#10;&#10;&#10;&#10;&#10;Note: uses GTK library for all GUI" style="text;align=left;verticalAlign=top;spacingLeft=4;spacingRight=4;overflow=hidden;rotatable=0;points=[[0,0.5],[1,0.5]];portConstraint=eastwest;" parent="bVzltMthEKLoWDJMZpQD-25" vertex="1">
                    <mxGeometry y="108" width="220" height="160" as="geometry"/>
                </mxCell>
                <mxCell id="bVzltMthEKLoWDJMZpQD-29" value="EnvironmentInitialization" style="swimlane;fontStyle=1;align=center;verticalAlign=top;childLayout=stackLayout;horizontal=1;startSize=26;horizontalStack=0;resizeParent=1;resizeParentMax=0;resizeLast=0;collapsible=1;marginBottom=0;fillColor=#008a00;strokeColor=#005700;fontColor=#ffffff;" parent="P_763lVRbbRgGYn9D_8V-1" vertex="1">
                    <mxGeometry x="70" y="820" width="230" height="270" as="geometry"/>
                </mxCell>
                <mxCell id="bVzltMthEKLoWDJMZpQD-30" value="Purpose:&#10;Calls Simulator setter methods to modify&#10;the simulator's internal variables" style="text;strokeColor=none;fillColor=none;align=left;verticalAlign=top;spacingLeft=4;spacingRight=4;overflow=hidden;rotatable=0;points=[[0,0.5],[1,0.5]];portConstraint=eastwest;" parent="bVzltMthEKLoWDJMZpQD-29" vertex="1">
                    <mxGeometry y="26" width="230" height="64" as="geometry"/>
                </mxCell>
                <mxCell id="bVzltMthEKLoWDJMZpQD-31" value="" style="line;strokeWidth=1;fillColor=none;align=left;verticalAlign=middle;spacingTop=-1;spacingLeft=3;spacingRight=3;rotatable=0;labelPosition=right;points=[];portConstraint=eastwest;" parent="bVzltMthEKLoWDJMZpQD-29" vertex="1">
                    <mxGeometry y="90" width="230" height="8" as="geometry"/>
                </mxCell>
                <mxCell id="bVzltMthEKLoWDJMZpQD-32" value="Methods related to algorithm:&#10;&#10;Simulator::set___()&#10;&#10;" style="text;strokeColor=none;fillColor=none;align=left;verticalAlign=top;spacingLeft=4;spacingRight=4;overflow=hidden;rotatable=0;points=[[0,0.5],[1,0.5]];portConstraint=eastwest;" parent="bVzltMthEKLoWDJMZpQD-29" vertex="1">
                    <mxGeometry y="98" width="230" height="172" as="geometry"/>
                </mxCell>
            </root>
        </mxGraphModel>
    </diagram>
    <diagram id="xNZVOmtVQG4588c9z4oc" name="User Mobility">
        <mxGraphModel dx="1758" dy="1150" grid="1" gridSize="10" guides="1" tooltips="1" connect="1" arrows="1" fold="1" page="1" pageScale="1" pageWidth="850" pageHeight="1100" math="0" shadow="0">
            <root>
                <mxCell id="7WKU14XymeaWdeCZGkRU-0"/>
                <mxCell id="7WKU14XymeaWdeCZGkRU-1" parent="7WKU14XymeaWdeCZGkRU-0"/>
                <mxCell id="TSFATDBbxW8YoYVpnxk1-0" value="User Mobility &lt;br&gt;Related Classes" style="text;strokeColor=none;fillColor=none;html=1;fontSize=24;fontStyle=1;verticalAlign=middle;align=center;" parent="7WKU14XymeaWdeCZGkRU-1" vertex="1">
                    <mxGeometry x="375" y="20" width="100" height="40" as="geometry"/>
                </mxCell>
                <mxCell id="EnxyLS9ktGub7Tj-1Koa-0" value="EnvironmentController" style="swimlane;fontStyle=1;align=center;verticalAlign=top;childLayout=stackLayout;horizontal=1;startSize=26;horizontalStack=0;resizeParent=1;resizeParentMax=0;resizeLast=0;collapsible=1;marginBottom=0;fillColor=#008a00;strokeColor=#005700;fontColor=#ffffff;" parent="7WKU14XymeaWdeCZGkRU-1" vertex="1">
                    <mxGeometry x="40" y="80" width="260" height="270" as="geometry"/>
                </mxCell>
                <mxCell id="EnxyLS9ktGub7Tj-1Koa-1" value="Purpose:&#10;Calculate where to move users and then&#10;call functions to move them" style="text;strokeColor=none;fillColor=none;align=left;verticalAlign=top;spacingLeft=4;spacingRight=4;overflow=hidden;rotatable=0;points=[[0,0.5],[1,0.5]];portConstraint=eastwest;" parent="EnxyLS9ktGub7Tj-1Koa-0" vertex="1">
                    <mxGeometry y="26" width="260" height="64" as="geometry"/>
                </mxCell>
                <mxCell id="EnxyLS9ktGub7Tj-1Koa-2" value="" style="line;strokeWidth=1;fillColor=none;align=left;verticalAlign=middle;spacingTop=-1;spacingLeft=3;spacingRight=3;rotatable=0;labelPosition=right;points=[];portConstraint=eastwest;" parent="EnxyLS9ktGub7Tj-1Koa-0" vertex="1">
                    <mxGeometry y="90" width="260" height="8" as="geometry"/>
                </mxCell>
                <mxCell id="EnxyLS9ktGub7Tj-1Koa-3" value="Methods related to moving users:&#10;&#10;void EnvironmentController::UpdateUserLoc&#10;- Main function to move users&#10;&#10;&#10;void EnvironmentController::ECUpdate()&#10;- Calls the UpdateUserLoc function based on&#10;the buffer timer" style="text;strokeColor=none;fillColor=none;align=left;verticalAlign=top;spacingLeft=4;spacingRight=4;overflow=hidden;rotatable=0;points=[[0,0.5],[1,0.5]];portConstraint=eastwest;" parent="EnxyLS9ktGub7Tj-1Koa-0" vertex="1">
                    <mxGeometry y="98" width="260" height="172" as="geometry"/>
                </mxCell>
                <mxCell id="XSKghX5gY0TrOwX5OMg6-0" value="Simulator" style="swimlane;fontStyle=1;align=center;verticalAlign=top;childLayout=stackLayout;horizontal=1;startSize=26;horizontalStack=0;resizeParent=1;resizeParentMax=0;resizeLast=0;collapsible=1;marginBottom=0;fillColor=#008a00;strokeColor=#005700;fontColor=#ffffff;" parent="7WKU14XymeaWdeCZGkRU-1" vertex="1">
                    <mxGeometry x="320" y="80" width="260" height="270" as="geometry"/>
                </mxCell>
                <mxCell id="XSKghX5gY0TrOwX5OMg6-1" value="Purpose:&#10;Modifies REAL user location&#10;as well as calls method to modify user records&#10;on the corresponding BaseStation" style="text;strokeColor=none;fillColor=none;align=left;verticalAlign=top;spacingLeft=4;spacingRight=4;overflow=hidden;rotatable=0;points=[[0,0.5],[1,0.5]];portConstraint=eastwest;" parent="XSKghX5gY0TrOwX5OMg6-0" vertex="1">
                    <mxGeometry y="26" width="260" height="64" as="geometry"/>
                </mxCell>
                <mxCell id="XSKghX5gY0TrOwX5OMg6-2" value="" style="line;strokeWidth=1;fillColor=none;align=left;verticalAlign=middle;spacingTop=-1;spacingLeft=3;spacingRight=3;rotatable=0;labelPosition=right;points=[];portConstraint=eastwest;" parent="XSKghX5gY0TrOwX5OMg6-0" vertex="1">
                    <mxGeometry y="90" width="260" height="8" as="geometry"/>
                </mxCell>
                <mxCell id="XSKghX5gY0TrOwX5OMg6-3" value="Methods related to moving users:&#10;&#10;bool Simulator::moveUE&#10;- Modifies real user location&#10;- Calls BaseStation::moveUE" style="text;strokeColor=none;fillColor=none;align=left;verticalAlign=top;spacingLeft=4;spacingRight=4;overflow=hidden;rotatable=0;points=[[0,0.5],[1,0.5]];portConstraint=eastwest;" parent="XSKghX5gY0TrOwX5OMg6-0" vertex="1">
                    <mxGeometry y="98" width="260" height="172" as="geometry"/>
                </mxCell>
                <mxCell id="n4s8jEsMevqnvgJ0W4-r-0" value="User Mobility GUI Related Classes" style="text;strokeColor=none;fillColor=none;html=1;fontSize=24;fontStyle=1;verticalAlign=middle;align=center;" parent="7WKU14XymeaWdeCZGkRU-1" vertex="1">
                    <mxGeometry x="375" y="440" width="100" height="40" as="geometry"/>
                </mxCell>
                <mxCell id="n4s8jEsMevqnvgJ0W4-r-1" value="Simulator" style="swimlane;fontStyle=1;align=center;verticalAlign=top;childLayout=stackLayout;horizontal=1;startSize=26;horizontalStack=0;resizeParent=1;resizeParentMax=0;resizeLast=0;collapsible=1;marginBottom=0;fillColor=#008a00;strokeColor=#005700;fontColor=#ffffff;" parent="7WKU14XymeaWdeCZGkRU-1" vertex="1">
                    <mxGeometry x="40" y="480" width="260" height="270" as="geometry"/>
                </mxCell>
                <mxCell id="n4s8jEsMevqnvgJ0W4-r-2" value="Purpose:&#10;Set properties related to User Mobility&#10;like usermobility buffer&#10;Â " style="text;strokeColor=none;fillColor=none;align=left;verticalAlign=top;spacingLeft=4;spacingRight=4;overflow=hidden;rotatable=0;points=[[0,0.5],[1,0.5]];portConstraint=eastwest;" parent="n4s8jEsMevqnvgJ0W4-r-1" vertex="1">
                    <mxGeometry y="26" width="260" height="64" as="geometry"/>
                </mxCell>
                <mxCell id="n4s8jEsMevqnvgJ0W4-r-3" value="" style="line;strokeWidth=1;fillColor=none;align=left;verticalAlign=middle;spacingTop=-1;spacingLeft=3;spacingRight=3;rotatable=0;labelPosition=right;points=[];portConstraint=eastwest;" parent="n4s8jEsMevqnvgJ0W4-r-1" vertex="1">
                    <mxGeometry y="90" width="260" height="8" as="geometry"/>
                </mxCell>
                <mxCell id="n4s8jEsMevqnvgJ0W4-r-4" value="Methods related to moving users:&#10;&#10;Getters / Setters&#10;- For the mobility buffer property" style="text;strokeColor=none;fillColor=none;align=left;verticalAlign=top;spacingLeft=4;spacingRight=4;overflow=hidden;rotatable=0;points=[[0,0.5],[1,0.5]];portConstraint=eastwest;" parent="n4s8jEsMevqnvgJ0W4-r-1" vertex="1">
                    <mxGeometry y="98" width="260" height="172" as="geometry"/>
                </mxCell>
                <mxCell id="IJuKFA-7r6CIy5-B2ZmP-1" value="BaseStation" style="swimlane;fontStyle=1;align=center;verticalAlign=top;childLayout=stackLayout;horizontal=1;startSize=26;horizontalStack=0;resizeParent=1;resizeParentMax=0;resizeLast=0;collapsible=1;marginBottom=0;fillColor=#008a00;strokeColor=#005700;fontColor=#ffffff;" parent="7WKU14XymeaWdeCZGkRU-1" vertex="1">
                    <mxGeometry x="600" y="80" width="250" height="270" as="geometry"/>
                </mxCell>
                <mxCell id="IJuKFA-7r6CIy5-B2ZmP-2" value="Purpose:&#10;Modifies User Equipment Record files on the&#10;BaseStation" style="text;strokeColor=none;fillColor=none;align=left;verticalAlign=top;spacingLeft=4;spacingRight=4;overflow=hidden;rotatable=0;points=[[0,0.5],[1,0.5]];portConstraint=eastwest;" parent="IJuKFA-7r6CIy5-B2ZmP-1" vertex="1">
                    <mxGeometry y="26" width="250" height="64" as="geometry"/>
                </mxCell>
                <mxCell id="IJuKFA-7r6CIy5-B2ZmP-3" value="" style="line;strokeWidth=1;fillColor=none;align=left;verticalAlign=middle;spacingTop=-1;spacingLeft=3;spacingRight=3;rotatable=0;labelPosition=right;points=[];portConstraint=eastwest;" parent="IJuKFA-7r6CIy5-B2ZmP-1" vertex="1">
                    <mxGeometry y="90" width="250" height="8" as="geometry"/>
                </mxCell>
                <mxCell id="IJuKFA-7r6CIy5-B2ZmP-4" value="Methods related to moving users:&#10;&#10;bool BaseStation::moveUE&#10;- Modifies records of user that exists on the&#10;BaseStation" style="text;strokeColor=none;fillColor=none;align=left;verticalAlign=top;spacingLeft=4;spacingRight=4;overflow=hidden;rotatable=0;points=[[0,0.5],[1,0.5]];portConstraint=eastwest;" parent="IJuKFA-7r6CIy5-B2ZmP-1" vertex="1">
                    <mxGeometry y="98" width="250" height="172" as="geometry"/>
                </mxCell>
                <mxCell id="ayeKkhRKrMJokO5zn4J2-0" value="GUIDataContainer" style="swimlane;fontStyle=1;align=center;verticalAlign=top;childLayout=stackLayout;horizontal=1;startSize=26;horizontalStack=0;resizeParent=1;resizeParentMax=0;resizeLast=0;collapsible=1;marginBottom=0;fillColor=#008a00;strokeColor=#005700;fontColor=#ffffff;" parent="7WKU14XymeaWdeCZGkRU-1" vertex="1">
                    <mxGeometry x="320" y="480" width="250" height="270" as="geometry"/>
                </mxCell>
                <mxCell id="ayeKkhRKrMJokO5zn4J2-1" value="Purpose:&#10;Set default values for the simulator" style="text;strokeColor=none;fillColor=none;align=left;verticalAlign=top;spacingLeft=4;spacingRight=4;overflow=hidden;rotatable=0;points=[[0,0.5],[1,0.5]];portConstraint=eastwest;" parent="ayeKkhRKrMJokO5zn4J2-0" vertex="1">
                    <mxGeometry y="26" width="250" height="64" as="geometry"/>
                </mxCell>
                <mxCell id="ayeKkhRKrMJokO5zn4J2-2" value="" style="line;strokeWidth=1;fillColor=none;align=left;verticalAlign=middle;spacingTop=-1;spacingLeft=3;spacingRight=3;rotatable=0;labelPosition=right;points=[];portConstraint=eastwest;" parent="ayeKkhRKrMJokO5zn4J2-0" vertex="1">
                    <mxGeometry y="90" width="250" height="8" as="geometry"/>
                </mxCell>
                <mxCell id="ayeKkhRKrMJokO5zn4J2-3" value="Methods related to moving users:&#10;&#10;None (initilizes values for simulator)" style="text;align=left;verticalAlign=top;spacingLeft=4;spacingRight=4;overflow=hidden;rotatable=0;points=[[0,0.5],[1,0.5]];portConstraint=eastwest;" parent="ayeKkhRKrMJokO5zn4J2-0" vertex="1">
                    <mxGeometry y="98" width="250" height="172" as="geometry"/>
                </mxCell>
                <mxCell id="wcHJfVU4EHm2mVb1dd0r-0" value="GUIMain" style="swimlane;fontStyle=1;align=center;verticalAlign=top;childLayout=stackLayout;horizontal=1;startSize=26;horizontalStack=0;resizeParent=1;resizeParentMax=0;resizeLast=0;collapsible=1;marginBottom=0;fillColor=#008a00;strokeColor=#005700;fontColor=#ffffff;" parent="7WKU14XymeaWdeCZGkRU-1" vertex="1">
                    <mxGeometry x="590" y="481" width="240" height="268" as="geometry"/>
                </mxCell>
                <mxCell id="wcHJfVU4EHm2mVb1dd0r-1" value="Purpose:&#10;Creates GUI simulation application.&#10;Gives options for user to save/&#10;analyze data" style="text;strokeColor=none;fillColor=none;align=left;verticalAlign=top;spacingLeft=4;spacingRight=4;overflow=hidden;rotatable=0;points=[[0,0.5],[1,0.5]];portConstraint=eastwest;" parent="wcHJfVU4EHm2mVb1dd0r-0" vertex="1">
                    <mxGeometry y="26" width="240" height="74" as="geometry"/>
                </mxCell>
                <mxCell id="wcHJfVU4EHm2mVb1dd0r-2" value="" style="line;strokeWidth=1;fillColor=none;align=left;verticalAlign=middle;spacingTop=-1;spacingLeft=3;spacingRight=3;rotatable=0;labelPosition=right;points=[];portConstraint=eastwest;" parent="wcHJfVU4EHm2mVb1dd0r-0" vertex="1">
                    <mxGeometry y="100" width="240" height="8" as="geometry"/>
                </mxCell>
                <mxCell id="wcHJfVU4EHm2mVb1dd0r-3" value="Methods related to moving users:&#10;&#10;drawScatterPlot()&#10;- visualizes user mobility on scatter plot&#10;&#10;&#10;&#10;&#10;&#10;Note: uses GTK library for all GUI" style="text;align=left;verticalAlign=top;spacingLeft=4;spacingRight=4;overflow=hidden;rotatable=0;points=[[0,0.5],[1,0.5]];portConstraint=eastwest;" parent="wcHJfVU4EHm2mVb1dd0r-0" vertex="1">
                    <mxGeometry y="108" width="240" height="160" as="geometry"/>
                </mxCell>
            </root>
        </mxGraphModel>
    </diagram>
    <diagram id="I2elc5N4jdK7L7TSwSpu" name=".csv Output">
        <mxGraphModel dx="1758" dy="1150" grid="1" gridSize="10" guides="1" tooltips="1" connect="1" arrows="1" fold="1" page="1" pageScale="1" pageWidth="850" pageHeight="1100" math="0" shadow="0">
            <root>
                <mxCell id="QjopWm3Hr4ZlNNSDy9Cj-0"/>
                <mxCell id="QjopWm3Hr4ZlNNSDy9Cj-1" parent="QjopWm3Hr4ZlNNSDy9Cj-0"/>
                <mxCell id="N5-v-XZQ1slk9fZjQFcA-0" value=".CSV Output Related Classes" style="text;strokeColor=none;fillColor=none;html=1;fontSize=24;fontStyle=1;verticalAlign=middle;align=center;" parent="QjopWm3Hr4ZlNNSDy9Cj-1" vertex="1">
                    <mxGeometry x="375" y="20" width="100" height="40" as="geometry"/>
                </mxCell>
                <mxCell id="N5-v-XZQ1slk9fZjQFcA-1" value="Simulator" style="swimlane;fontStyle=1;align=center;verticalAlign=top;childLayout=stackLayout;horizontal=1;startSize=26;horizontalStack=0;resizeParent=1;resizeParentMax=0;resizeLast=0;collapsible=1;marginBottom=0;fillColor=#008a00;strokeColor=#005700;fontColor=#ffffff;" parent="QjopWm3Hr4ZlNNSDy9Cj-1" vertex="1">
                    <mxGeometry x="40" y="80" width="260" height="270" as="geometry">
                        <mxRectangle x="40" y="80" width="160" height="26" as="alternateBounds"/>
                    </mxGeometry>
                </mxCell>
                <mxCell id="N5-v-XZQ1slk9fZjQFcA-2" value="Purpose:&#10;CallsÂ FileIO::appendLog(sim) to be able to&#10;modfy the .csv file output" style="text;strokeColor=none;fillColor=none;align=left;verticalAlign=top;spacingLeft=4;spacingRight=4;overflow=hidden;rotatable=0;points=[[0,0.5],[1,0.5]];portConstraint=eastwest;" parent="N5-v-XZQ1slk9fZjQFcA-1" vertex="1">
                    <mxGeometry y="26" width="260" height="64" as="geometry"/>
                </mxCell>
                <mxCell id="N5-v-XZQ1slk9fZjQFcA-3" value="" style="line;strokeWidth=1;fillColor=none;align=left;verticalAlign=middle;spacingTop=-1;spacingLeft=3;spacingRight=3;rotatable=0;labelPosition=right;points=[];portConstraint=eastwest;" parent="N5-v-XZQ1slk9fZjQFcA-1" vertex="1">
                    <mxGeometry y="90" width="260" height="8" as="geometry"/>
                </mxCell>
                <mxCell id="N5-v-XZQ1slk9fZjQFcA-4" value="Methods related to CSV output:&#10;&#10;bool Simulator::runSimulation()&#10;" style="text;strokeColor=none;fillColor=none;align=left;verticalAlign=top;spacingLeft=4;spacingRight=4;overflow=hidden;rotatable=0;points=[[0,0.5],[1,0.5]];portConstraint=eastwest;" parent="N5-v-XZQ1slk9fZjQFcA-1" vertex="1">
                    <mxGeometry y="98" width="260" height="172" as="geometry"/>
                </mxCell>
                <mxCell id="N5-v-XZQ1slk9fZjQFcA-5" value="FileIO" style="swimlane;fontStyle=1;align=center;verticalAlign=top;childLayout=stackLayout;horizontal=1;startSize=26;horizontalStack=0;resizeParent=1;resizeParentMax=0;resizeLast=0;collapsible=1;marginBottom=0;fillColor=#008a00;strokeColor=#005700;fontColor=#ffffff;" parent="QjopWm3Hr4ZlNNSDy9Cj-1" vertex="1">
                    <mxGeometry x="360" y="80" width="270" height="270" as="geometry">
                        <mxRectangle x="320" y="80" width="90" height="26" as="alternateBounds"/>
                    </mxGeometry>
                </mxCell>
                <mxCell id="N5-v-XZQ1slk9fZjQFcA-6" value="Purpose:&#10;Calls functions to modify the .csv file using&#10;&lt;fstream&gt; and &lt;iostream&gt; libraries" style="text;strokeColor=none;fillColor=none;align=left;verticalAlign=top;spacingLeft=4;spacingRight=4;overflow=hidden;rotatable=0;points=[[0,0.5],[1,0.5]];portConstraint=eastwest;" parent="N5-v-XZQ1slk9fZjQFcA-5" vertex="1">
                    <mxGeometry y="26" width="270" height="64" as="geometry"/>
                </mxCell>
                <mxCell id="N5-v-XZQ1slk9fZjQFcA-7" value="" style="line;strokeWidth=1;fillColor=none;align=left;verticalAlign=middle;spacingTop=-1;spacingLeft=3;spacingRight=3;rotatable=0;labelPosition=right;points=[];portConstraint=eastwest;" parent="N5-v-XZQ1slk9fZjQFcA-5" vertex="1">
                    <mxGeometry y="90" width="270" height="8" as="geometry"/>
                </mxCell>
                <mxCell id="N5-v-XZQ1slk9fZjQFcA-8" value="Methods related to CSV output:&#10;&#10;bool FileIO::appendLog(const uint32_t&amp; simNum)" style="text;strokeColor=none;fillColor=none;align=left;verticalAlign=top;spacingLeft=4;spacingRight=4;overflow=hidden;rotatable=0;points=[[0,0.5],[1,0.5]];portConstraint=eastwest;" parent="N5-v-XZQ1slk9fZjQFcA-5" vertex="1">
                    <mxGeometry y="98" width="270" height="172" as="geometry"/>
                </mxCell>
            </root>
        </mxGraphModel>
    </diagram>
    <diagram id="5HtfKGqZGtNMgQZpWmyb" name="FileIO">
        <mxGraphModel dx="1714" dy="1150" grid="1" gridSize="10" guides="1" tooltips="1" connect="1" arrows="1" fold="1" page="1" pageScale="1" pageWidth="850" pageHeight="1100" math="0" shadow="0">
            <root>
                <mxCell id="DnrRjilun0DflXOTuMBY-0"/>
                <mxCell id="DnrRjilun0DflXOTuMBY-1" parent="DnrRjilun0DflXOTuMBY-0"/>
                <mxCell id="XW7bf8gxI1_v4HExEiaj-0" value="&lt;b&gt;File Streaming&lt;br&gt;https://www.cplusplus.com/reference/fstream/fstream/&lt;br&gt;&lt;/b&gt;&lt;br&gt;&lt;b&gt;Other libraries related to string and type modification&lt;/b&gt;&lt;br&gt;https://www.cplusplus.com/reference/iostream/&lt;br&gt;https://www.cplusplus.com/reference/sstream/&lt;br&gt;http://www.cplusplus.com/reference/utility/&lt;br&gt;http://www.cplusplus.com/reference/map/map/" style="text;html=1;strokeColor=none;fillColor=none;align=left;verticalAlign=middle;whiteSpace=wrap;rounded=0;" parent="DnrRjilun0DflXOTuMBY-1" vertex="1">
                    <mxGeometry x="40" y="40" width="390" height="110" as="geometry"/>
                </mxCell>
            </root>
        </mxGraphModel>
    </diagram>
    <diagram id="C5RBs43oDa-KdzZeNtuy" name="Entire Code (old)">
        <mxGraphModel dx="1428" dy="958" grid="1" gridSize="10" guides="1" tooltips="1" connect="1" arrows="1" fold="1" page="1" pageScale="1" pageWidth="827" pageHeight="1169" math="0" shadow="0">
            <root>
                <mxCell id="WIyWlLk6GJQsqaUBKTNV-0"/>
                <mxCell id="WIyWlLk6GJQsqaUBKTNV-1" parent="WIyWlLk6GJQsqaUBKTNV-0"/>
                <mxCell id="27" value="Antenna" style="swimlane;fontStyle=1;align=center;verticalAlign=top;childLayout=stackLayout;horizontal=1;startSize=26;horizontalStack=0;resizeParent=1;resizeParentMax=0;resizeLast=0;collapsible=1;marginBottom=0;fillColor=#F84134;strokeColor=#b85450;" parent="WIyWlLk6GJQsqaUBKTNV-1" vertex="1">
                    <mxGeometry x="460" y="2100" width="270" height="250" as="geometry">
                        <mxRectangle x="400" y="1730.5" width="80" height="26" as="alternateBounds"/>
                    </mxGeometry>
                </mxCell>
                <mxCell id="28" value="# size_t antID&#10;# CoordF loc&#10;# float antAngle&#10;# TransceiverList connectionInfo" style="text;strokeColor=none;fillColor=none;align=left;verticalAlign=top;spacingLeft=4;spacingRight=4;overflow=hidden;rotatable=0;points=[[0,0.5],[1,0.5]];portConstraint=eastwest;" parent="27" vertex="1">
                    <mxGeometry y="26" width="270" height="84" as="geometry"/>
                </mxCell>
                <mxCell id="29" value="" style="line;strokeWidth=1;fillColor=none;align=left;verticalAlign=middle;spacingTop=-1;spacingLeft=3;spacingRight=3;rotatable=0;labelPosition=right;points=[];portConstraint=eastwest;" parent="27" vertex="1">
                    <mxGeometry y="110" width="270" height="8" as="geometry"/>
                </mxCell>
                <mxCell id="30" value="+ Antenna()&#10;+ Antenna(int, float, float)&#10;+ float getAngle()&#10;+ float getLoc()&#10;+ int getAntID()&#10;+ TranscieverList&amp; getConnectionInfo()&#10;+ TranscieverList&amp; getConnectionInfo_m()&#10;" style="text;strokeColor=none;fillColor=none;align=left;verticalAlign=top;spacingLeft=4;spacingRight=4;overflow=hidden;rotatable=0;points=[[0,0.5],[1,0.5]];portConstraint=eastwest;" parent="27" vertex="1">
                    <mxGeometry y="118" width="270" height="132" as="geometry"/>
                </mxCell>
                <mxCell id="31" value="Transceiver" style="swimlane;fontStyle=1;align=center;verticalAlign=top;childLayout=stackLayout;horizontal=1;startSize=26;horizontalStack=0;resizeParent=1;resizeParentMax=0;resizeLast=0;collapsible=1;marginBottom=0;fillColor=#F84134;strokeColor=#b85450;" parent="WIyWlLk6GJQsqaUBKTNV-1" vertex="1">
                    <mxGeometry x="513.5" y="2480" width="193" height="220" as="geometry"/>
                </mxCell>
                <mxCell id="32" value="# int transceiverID&#10;# float trLoc&#10;# float theta&#10;# float antTheta&#10;" style="text;strokeColor=none;fillColor=none;align=left;verticalAlign=top;spacingLeft=4;spacingRight=4;overflow=hidden;rotatable=0;points=[[0,0.5],[1,0.5]];portConstraint=eastwest;" parent="31" vertex="1">
                    <mxGeometry y="26" width="193" height="84" as="geometry"/>
                </mxCell>
                <mxCell id="33" value="" style="line;strokeWidth=1;fillColor=none;align=left;verticalAlign=middle;spacingTop=-1;spacingLeft=3;spacingRight=3;rotatable=0;labelPosition=right;points=[];portConstraint=eastwest;" parent="31" vertex="1">
                    <mxGeometry y="110" width="193" height="8" as="geometry"/>
                </mxCell>
                <mxCell id="34" value="+ Transceiver()&#10;+ Transciever(int, float, float)&#10;+ int getTransceiverID()&#10;+ float getLoc()&#10;+ float getAntTheta()&#10;+ float getTheta()&#10;" style="text;strokeColor=none;fillColor=none;align=left;verticalAlign=top;spacingLeft=4;spacingRight=4;overflow=hidden;rotatable=0;points=[[0,0.5],[1,0.5]];portConstraint=eastwest;" parent="31" vertex="1">
                    <mxGeometry y="118" width="193" height="102" as="geometry"/>
                </mxCell>
                <mxCell id="50" value="UErecord" style="swimlane;fontStyle=1;align=center;verticalAlign=top;childLayout=stackLayout;horizontal=1;startSize=26;horizontalStack=0;resizeParent=1;resizeParentMax=0;resizeLast=0;collapsible=1;marginBottom=0;fillColor=#FF99FF;" parent="WIyWlLk6GJQsqaUBKTNV-1" vertex="1">
                    <mxGeometry x="30" y="2490" width="240" height="330" as="geometry"/>
                </mxCell>
                <mxCell id="51" value="+ int userID&#10;+ int mobilityID&#10;+ int antenna&#10;+ int currentTranceiver&#10;+ int demand&#10;+ int bitsSent&#10;+ float loc&#10;+ float currentSNR&#10;+ float powerSent&#10;+ float rsrp&#10;+ float rssi&#10;+ float rsrq&#10;+ float ddr" style="text;strokeColor=none;fillColor=none;align=left;verticalAlign=top;spacingLeft=4;spacingRight=4;overflow=hidden;rotatable=0;points=[[0,0.5],[1,0.5]];portConstraint=eastwest;" parent="50" vertex="1">
                    <mxGeometry y="26" width="240" height="204" as="geometry"/>
                </mxCell>
                <mxCell id="52" value="" style="line;strokeWidth=1;fillColor=none;align=left;verticalAlign=middle;spacingTop=-1;spacingLeft=3;spacingRight=3;rotatable=0;labelPosition=right;points=[];portConstraint=eastwest;" parent="50" vertex="1">
                    <mxGeometry y="230" width="240" height="8" as="geometry"/>
                </mxCell>
                <mxCell id="53" value="+ UERecord()&#10;+ UERecord(int,int,float,int,int,float,int,int,&#10;Â Â Â Â Â Â Â Â Â Â Â Â Â Â Â Â Â Â Â Â Â Â Â float,float,float,float,float)&#10;+ float getRSRP()&#10;+ float getDDR()" style="text;strokeColor=none;fillColor=none;align=left;verticalAlign=top;spacingLeft=4;spacingRight=4;overflow=hidden;rotatable=0;points=[[0,0.5],[1,0.5]];portConstraint=eastwest;" parent="50" vertex="1">
                    <mxGeometry y="238" width="240" height="92" as="geometry"/>
                </mxCell>
                <mxCell id="2oDYCS03bgmEmBuxSCpj-198" style="edgeStyle=orthogonalEdgeStyle;rounded=0;orthogonalLoop=1;jettySize=auto;html=1;exitX=0.469;exitY=1;exitDx=0;exitDy=0;entryX=0.5;entryY=0;entryDx=0;entryDy=0;exitPerimeter=0;" parent="WIyWlLk6GJQsqaUBKTNV-1" source="2oDYCS03bgmEmBuxSCpj-134" target="56" edge="1">
                    <mxGeometry relative="1" as="geometry">
                        <mxPoint x="200.42857142857156" y="1410" as="sourcePoint"/>
                    </mxGeometry>
                </mxCell>
                <mxCell id="56" value="BaseStation" style="swimlane;fontStyle=1;align=center;verticalAlign=top;childLayout=stackLayout;horizontal=1;startSize=26;horizontalStack=0;resizeParent=1;resizeParentMax=0;resizeLast=0;collapsible=1;marginBottom=0;fillColor=#FF99FF;swimlaneLine=1;" parent="WIyWlLk6GJQsqaUBKTNV-1" vertex="1">
                    <mxGeometry x="70" y="1470" width="260" height="540" as="geometry"/>
                </mxCell>
                <mxCell id="57" value="# size_t bsID&#10;# Coordf loc&#10;# uint32_t dataRate&#10;# bool BS_Status&#10;# UEDataBase userRecords&#10;# Antenna BSAntenna&#10;# Transmission outgoingTransmissions&#10;# uint32_t BaseStationAttractiveness&#10;# uint32_t BaseStationPopulationDensity" style="text;strokeColor=none;fillColor=none;align=left;verticalAlign=top;spacingLeft=4;spacingRight=4;overflow=hidden;rotatable=0;points=[[0,0.5],[1,0.5]];portConstraint=eastwest;" parent="56" vertex="1">
                    <mxGeometry y="26" width="260" height="164" as="geometry"/>
                </mxCell>
                <mxCell id="58" value="" style="line;strokeWidth=1;fillColor=none;align=left;verticalAlign=middle;spacingTop=-1;spacingLeft=3;spacingRight=3;rotatable=0;labelPosition=right;points=[];portConstraint=eastwest;" parent="56" vertex="1">
                    <mxGeometry y="190" width="260" height="8" as="geometry"/>
                </mxCell>
                <mxCell id="59" value="+ BaseStation()&#10;+ void InitializeDefaults(int,int,int,int,int)&#10;+ void initTranscievers()&#10;+ int getBSID()&#10;+ float getLoc()&#10;+ bool getStatus()&#10;+ int getDataRate()&#10;+ int getBSAttractiveness&#10;+ int getBSPopulationDensity&#10;+ Antenna getAntenna(int)&#10;+ Antenna getAntennaVec()&#10;+ UEDataBase getUEDB()&#10;+ void setFailedTrue()&#10;+ void setFailedFalse()&#10;+ void setBSAttractiveness()&#10;+ void setBSPopulationDensity()&#10;+ void addUERecord()&#10;+ bool removeUE()&#10;+ bool addUE()&#10;+ bool moveUE()&#10;+ bool Update()&#10;# float calculateTransmittedPower(float, float)&#10;&#10;" style="text;strokeColor=none;fillColor=none;align=left;verticalAlign=top;spacingLeft=4;spacingRight=4;overflow=hidden;rotatable=0;points=[[0,0.5],[1,0.5]];portConstraint=eastwest;" parent="56" vertex="1">
                    <mxGeometry y="198" width="260" height="342" as="geometry"/>
                </mxCell>
                <mxCell id="75" value="UEDataBase" style="swimlane;fontStyle=1;align=center;verticalAlign=top;childLayout=stackLayout;horizontal=1;startSize=26;horizontalStack=0;resizeParent=1;resizeParentMax=0;resizeLast=0;collapsible=1;marginBottom=0;fillColor=#FF99FF;" parent="WIyWlLk6GJQsqaUBKTNV-1" vertex="1">
                    <mxGeometry x="20" y="2220" width="240" height="220" as="geometry"/>
                </mxCell>
                <mxCell id="76" value="# std::vector&lt;UErecord&gt; database&#10;# std::map&lt;int,int&gt; lookupTbl" style="text;strokeColor=none;fillColor=none;align=left;verticalAlign=top;spacingLeft=4;spacingRight=4;overflow=hidden;rotatable=0;points=[[0,0.5],[1,0.5]];portConstraint=eastwest;" parent="75" vertex="1">
                    <mxGeometry y="26" width="240" height="44" as="geometry"/>
                </mxCell>
                <mxCell id="77" value="" style="line;strokeWidth=1;fillColor=none;align=left;verticalAlign=middle;spacingTop=-1;spacingLeft=3;spacingRight=3;rotatable=0;labelPosition=right;points=[];portConstraint=eastwest;" parent="75" vertex="1">
                    <mxGeometry y="70" width="240" height="8" as="geometry"/>
                </mxCell>
                <mxCell id="78" value="# void updateLUT()&#10;+ UERecord readDB()&#10;+ UERecord readWriteDB()&#10;+ void push_back(const UErecord&amp;)&#10;+ UErecord look_up(const int&amp;)&#10;+ UERecord look_up_m(const int&amp;)&#10;+ int size()&#10;+ void shuffle()&#10;+ int removeUser(int)" style="text;strokeColor=none;fillColor=none;align=left;verticalAlign=top;spacingLeft=4;spacingRight=4;overflow=hidden;rotatable=0;points=[[0,0.5],[1,0.5]];portConstraint=eastwest;" parent="75" vertex="1">
                    <mxGeometry y="78" width="240" height="142" as="geometry"/>
                </mxCell>
                <mxCell id="89" value="TransceiverList" style="swimlane;fontStyle=1;align=center;verticalAlign=top;childLayout=stackLayout;horizontal=1;startSize=26;horizontalStack=0;resizeParent=1;resizeParentMax=0;resizeLast=0;collapsible=1;marginBottom=0;fillColor=#F84134;strokeColor=#b85450;" parent="WIyWlLk6GJQsqaUBKTNV-1" vertex="1">
                    <mxGeometry x="490" y="2790" width="270" height="290" as="geometry"/>
                </mxCell>
                <mxCell id="90" value="# Transceiver transList&#10;# int,int userTransPairing&#10;# int availableTranscievers" style="text;strokeColor=none;fillColor=none;align=left;verticalAlign=top;spacingLeft=4;spacingRight=4;overflow=hidden;rotatable=0;points=[[0,0.5],[1,0.5]];portConstraint=eastwest;" parent="89" vertex="1">
                    <mxGeometry y="26" width="270" height="64" as="geometry"/>
                </mxCell>
                <mxCell id="91" value="" style="line;strokeWidth=1;fillColor=none;align=left;verticalAlign=middle;spacingTop=-1;spacingLeft=3;spacingRight=3;rotatable=0;labelPosition=right;points=[];portConstraint=eastwest;" parent="89" vertex="1">
                    <mxGeometry y="90" width="270" height="8" as="geometry"/>
                </mxCell>
                <mxCell id="92" value="+ TransceiverList()&#10;+ Transceiver&amp; operator[](int x)&#10;+ Transceiver getTranscievers()&#10;+ Transciever getTranscievers_m()&#10;+ int,int getUserTransPairings()&#10;+ int getAvailableTranscievers()&#10;+ bool,int addUser(int)&#10;+ bool removeUser(int)&#10;+ int numberofTransceiversUsed()&#10;+ int getUserID()&#10;+ bool isFull()&#10;" style="text;strokeColor=none;fillColor=none;align=left;verticalAlign=top;spacingLeft=4;spacingRight=4;overflow=hidden;rotatable=0;points=[[0,0.5],[1,0.5]];portConstraint=eastwest;" parent="89" vertex="1">
                    <mxGeometry y="98" width="270" height="192" as="geometry"/>
                </mxCell>
                <mxCell id="105" value="&lt;div style=&quot;font-size: 15px&quot; align=&quot;center&quot;&gt;&lt;font style=&quot;font-size: 15px&quot; size=&quot;1&quot;&gt;&lt;b style=&quot;font-size: 24px&quot;&gt;COMMENTS&lt;/b&gt;&lt;/font&gt;&lt;/div&gt;&lt;div style=&quot;font-size: 15px&quot; align=&quot;center&quot;&gt;&lt;font style=&quot;font-size: 15px&quot;&gt;&lt;b&gt;&lt;br&gt;&lt;/b&gt;&lt;/font&gt;&lt;/div&gt;&lt;div style=&quot;font-size: 15px&quot; align=&quot;center&quot;&gt;&lt;font style=&quot;font-size: 15px&quot;&gt;&lt;b&gt;&lt;br&gt;&lt;/b&gt;&lt;/font&gt;&lt;/div&gt;&lt;div style=&quot;font-size: 15px&quot;&gt;&lt;font style=&quot;font-size: 15px&quot;&gt;Unless otherwise noted, arrows that are connected from one diagram to another means that there are instances of the object being pointed to within the UML diagram that the arrow originates from.&lt;/font&gt;&lt;/div&gt;&lt;div style=&quot;font-size: 15px&quot;&gt;&lt;font style=&quot;font-size: 15px&quot;&gt;&lt;br&gt;&lt;/font&gt;&lt;/div&gt;&lt;div style=&quot;font-size: 15px&quot;&gt;&lt;font style=&quot;font-size: 15px&quot;&gt;UML diagrams with the dark green color (e.g. DeviceList) are either simple data-only classes or custom types that function as a vector type for instantiations of its related class&lt;br&gt;&lt;/font&gt;&lt;/div&gt;&lt;div style=&quot;font-size: 15px&quot;&gt;&lt;font style=&quot;font-size: 15px&quot;&gt;&lt;br&gt;&lt;/font&gt;&lt;/div&gt;&lt;div style=&quot;font-size: 15px&quot;&gt;&lt;font style=&quot;font-size: 15px&quot;&gt;The diagrams with the light green color are not classes, they are header files with code that are treated as classes here.&lt;/font&gt;&lt;/div&gt;" style="rounded=0;whiteSpace=wrap;html=1;align=center;fillColor=#a0522d;strokeColor=#6D1F00;fontColor=#ffffff;" parent="WIyWlLk6GJQsqaUBKTNV-1" vertex="1">
                    <mxGeometry x="1150" y="80" width="320" height="399" as="geometry"/>
                </mxCell>
                <mxCell id="2oDYCS03bgmEmBuxSCpj-131" value="Simulator.h" style="swimlane;fontStyle=1;align=center;verticalAlign=top;childLayout=stackLayout;horizontal=1;startSize=26;horizontalStack=0;resizeParent=1;resizeParentMax=0;resizeLast=0;collapsible=1;marginBottom=0;fillColor=#00E84D;strokeColor=#82b366;" parent="WIyWlLk6GJQsqaUBKTNV-1" vertex="1">
                    <mxGeometry x="30" y="20" width="370" height="1380" as="geometry"/>
                </mxCell>
                <mxCell id="2oDYCS03bgmEmBuxSCpj-132" value="# size_tÂ  numberOfChannels&#10;# float&#9;&#9;BSRegionScalingFactor&#10;# uint32_tÂ  envClock&#10;# size_tÂ  numberOfAntennae&#10;# uint32_tÂ  healthyBSNumUsersPerAnt&#10;# size_tÂ  numberOfTransceivers&#10;# floatÂ  distanceBetweenTransceivers&#10;# uint32_tÂ  BSmaxDataRate&#10;# uint32_t simulationLength&#10;# uint32_tÂ  numberOfSimulations&#10;# uint32_t simulationStartNum&#10;# size_t currentChannel&#10;# uint32_t IRPBufSizeInSeconds&#10;# floatÂ  alertState&#10;# float&#9;&#9;defaultNormalState&#10;# float&#9;&#9;defaultCongestionStateÂ &#10;# float&#9;&#9;defaultFailureState&#10;# uint32_tÂ  mobilityBufSizeInMinutes&#10;# float&#9;&#9;RSRPThreshold&#10;# uint32_tÂ  algorithmVer&#10;#bool usingMachineLearning&#10;# vector&lt;BaseStation&gt;&#9;&#9;BaseStationList&#10;# vector&lt;UserEquipment&gt;&#9;UserEquipmentList&#10;# IRPManager&#9;&#9;&#9;&#9;&#9;NetworkManager&#10;" style="text;strokeColor=none;fillColor=none;align=left;verticalAlign=top;spacingLeft=4;spacingRight=4;overflow=hidden;rotatable=0;points=[[0,0.5],[1,0.5]];portConstraint=eastwest;" parent="2oDYCS03bgmEmBuxSCpj-131" vertex="1">
                    <mxGeometry y="26" width="370" height="344" as="geometry"/>
                </mxCell>
                <mxCell id="2oDYCS03bgmEmBuxSCpj-133" value="" style="line;strokeWidth=1;fillColor=none;align=left;verticalAlign=middle;spacingTop=-1;spacingLeft=3;spacingRight=3;rotatable=0;labelPosition=right;points=[];portConstraint=eastwest;" parent="2oDYCS03bgmEmBuxSCpj-131" vertex="1">
                    <mxGeometry y="370" width="370" height="10" as="geometry"/>
                </mxCell>
                <mxCell id="2oDYCS03bgmEmBuxSCpj-134" value="+ bool&#9;SimulatorInit()&#10;+ void&#9;initializeRAND()&#10;+ bool&#9;environmentTick()&#10;+ bool&#9;runSimulation()&#10;+ friend bool&#9;Setup::GUIentryPoint()&#10;+ BaseStation&amp;&#9;&#9;&#9;&#9;&#9;getBS_m(int)&#10;+ UserEquipment&amp;&#9;&#9;&#9;&#9;getUE_m(int)&#10;+ vector&lt;BaseStation&gt;&amp;&#9;getBSList_m()&#10;+ vector&lt;UserEquipment&gt;&amp;&#9;getUEList_m()&#10;+ IRPManager&amp;&#9;&#9;&#9;&#9;&#9;getIRPManager_m()&#10;+ void addBS( BaseStation&amp; )&#10;+ voidÂ  addUE( UserEquipment&amp; )&#10;+ void setNumOfChannels(int)&#10;+ void incrementCurrentChannel()&#10;+ void setBSRegionScalingFactor(float);&#10;+ void setEnvClock(int)&#10;+ void setNumberOfAntennae(int)&#10;+ void setHealthyBSNumUsersPerAnt(int)&#10;+ void setNumberOfTransceivers(int)&#10;+ void setDistanceBetweenTransceivers(float)&#10;+ void setBSMaxDR(int)&#10;+ void setSimulationLength(int)&#10;+ void setNumberOfSimulations(int)&#10;+ void setSimulationStartNum(int)&#10;+ void setCurrentChannel(int)&#10;+ void setIRPBufSizeInSeconds(int)&#10;+ void setAlertState(const float&amp; alertlvl)&#10;+ void setDefaultNormalState(float);&#10;+ void setDefaultCongestionState(float);&#10;+ void setDefaultFailureState(float)&#10;+ void resetCoreObjects();&#10;+ void setmobilityBufSizeInMinutes(int)&#10;+ void setRSRPThreshold(float)&#10;+ void setalgorithmVer(int)&#10;+ int getNumOfBSs()&#10;+ intÂ  getNumOfUsers()&#10;+ BaseStation getBS(int)&#10;+ UserEquipment getUE(int)&#10;+ vector&lt;BaseStation&gt;Â  getBSList()&#10;+ vector&lt;UserEquipment&gt; getUEList()&#10;+ IRPManager getIRPManager()&#10;+ int getNumOfChannels()&#10;+ floatÂ  getBSRegionScalingFactor()&#10;+ int getEnvClock()&#10;+ int getNumberOfAntennae()&#10;+ int getHealthyBSNumUsersPerAnt()&#10;+ int getNumberOfTransceivers()&#10;+ floatÂ  getDistanceBetweenTransceivers()&#10;+ int getBSMaxDR()&#10;+ int getSimulationLength()&#10;+ int getNumberOfSimulations()&#10;+ int getSimulationStartNum()&#10;+ int getCurrentChannel()&#10;+ int getIRPBufSizeInSeconds()&#10;+ floatÂ  getAlertState()&#10;+ floatÂ  getDefaultNormalState()&#10;+ floatÂ  getDefaultCongestionState()&#10;+ floatÂ  getDefaultFailureState()&#10;+ mt19937 getRandNumEngine()&#10;+ int getmobilityBufSizeInMinutes()&#10;+ floatÂ  getRSRPThreshold()&#10;+ int getalgorithmVer()&#10;+ float&#9;&#9;randF()&#10;+ int rand()&#10;+ void&#9;&#9;&#9;&#9;sendUETransmission(int, int, float)&#10;+ bool&#9;&#9;&#9;&#9;transferUE(int, int, int, int)&#10;+ bool&#9;&#9;&#9;&#9;moveUE(int, int, Coord&lt;float&gt;)&#10;+ float&#9;&#9;&#9;generateSNR(float)" style="text;strokeColor=none;fillColor=none;align=left;verticalAlign=top;spacingLeft=4;spacingRight=4;overflow=hidden;rotatable=0;points=[[0,0.5],[1,0.5]];portConstraint=eastwest;" parent="2oDYCS03bgmEmBuxSCpj-131" vertex="1">
                    <mxGeometry y="380" width="370" height="1000" as="geometry"/>
                </mxCell>
                <mxCell id="2oDYCS03bgmEmBuxSCpj-143" value="EnvironmentInitialization.h" style="swimlane;fontStyle=1;align=center;verticalAlign=top;childLayout=stackLayout;horizontal=1;startSize=26;horizontalStack=0;resizeParent=1;resizeParentMax=0;resizeLast=0;collapsible=1;marginBottom=0;fillColor=#00E84D;strokeColor=#82b366;" parent="WIyWlLk6GJQsqaUBKTNV-1" vertex="1">
                    <mxGeometry x="480" y="510" width="390" height="120" as="geometry"/>
                </mxCell>
                <mxCell id="2oDYCS03bgmEmBuxSCpj-144" value="# bool setDefaultUsers()&#10;# bool setBSMaxDataRate()&#10;# vector&lt;Coord&lt;float&gt;&gt; setBSCoords(vector&lt;std::pair&lt;int, int&gt;&gt;, int )&#10;# void initializeNumTransceivers()&#10;+ bool generateNewENV();" style="text;strokeColor=none;fillColor=none;align=left;verticalAlign=top;spacingLeft=4;spacingRight=4;overflow=hidden;rotatable=0;points=[[0,0.5],[1,0.5]];portConstraint=eastwest;" parent="2oDYCS03bgmEmBuxSCpj-143" vertex="1">
                    <mxGeometry y="26" width="390" height="94" as="geometry"/>
                </mxCell>
                <mxCell id="2oDYCS03bgmEmBuxSCpj-232" style="edgeStyle=orthogonalEdgeStyle;rounded=0;orthogonalLoop=1;jettySize=auto;html=1;entryX=0.654;entryY=1;entryDx=0;entryDy=0;entryPerimeter=0;" parent="WIyWlLk6GJQsqaUBKTNV-1" source="2oDYCS03bgmEmBuxSCpj-146" target="59" edge="1">
                    <mxGeometry relative="1" as="geometry">
                        <Array as="points">
                            <mxPoint x="300" y="2400"/>
                            <mxPoint x="300" y="2170"/>
                            <mxPoint x="240" y="2170"/>
                        </Array>
                    </mxGeometry>
                </mxCell>
                <mxCell id="2oDYCS03bgmEmBuxSCpj-146" value="BSFailureParams.h" style="swimlane;fontStyle=1;align=center;verticalAlign=top;childLayout=stackLayout;horizontal=1;startSize=26;horizontalStack=0;resizeParent=1;resizeParentMax=0;resizeLast=0;collapsible=1;marginBottom=0;strokeColor=#00E84D;fillColor=#FF99FF;" parent="WIyWlLk6GJQsqaUBKTNV-1" vertex="1">
                    <mxGeometry x="880" y="2240" width="460" height="250" as="geometry"/>
                </mxCell>
                <mxCell id="2oDYCS03bgmEmBuxSCpj-147" value="# int bsID;&#10;# float currentState&#10;# float endState&#10;# BSstatus currentStatus&#10;# BSstatus endStatus&#10;# int startTime&#10;# int riseTime&#10;# vector&lt;sint&gt; UEsInRegion" style="text;strokeColor=none;fillColor=none;align=left;verticalAlign=top;spacingLeft=4;spacingRight=4;overflow=hidden;rotatable=0;points=[[0,0.5],[1,0.5]];portConstraint=eastwest;" parent="2oDYCS03bgmEmBuxSCpj-146" vertex="1">
                    <mxGeometry y="26" width="460" height="134" as="geometry"/>
                </mxCell>
                <mxCell id="2oDYCS03bgmEmBuxSCpj-148" value="" style="line;strokeWidth=1;fillColor=none;align=left;verticalAlign=middle;spacingTop=-1;spacingLeft=3;spacingRight=3;rotatable=0;labelPosition=right;points=[];portConstraint=eastwest;" parent="2oDYCS03bgmEmBuxSCpj-146" vertex="1">
                    <mxGeometry y="160" width="460" height="8" as="geometry"/>
                </mxCell>
                <mxCell id="2oDYCS03bgmEmBuxSCpj-149" value="+ BSFailureParams()&#10;+ BSFailureParams(int, float, float, BSstatus, BSstatus, int, int, vector&lt;int&gt;)&#10;+ BSFailureParams(BSFailureParams)" style="text;strokeColor=none;fillColor=none;align=left;verticalAlign=top;spacingLeft=4;spacingRight=4;overflow=hidden;rotatable=0;points=[[0,0.5],[1,0.5]];portConstraint=eastwest;" parent="2oDYCS03bgmEmBuxSCpj-146" vertex="1">
                    <mxGeometry y="168" width="460" height="82" as="geometry"/>
                </mxCell>
                <mxCell id="2oDYCS03bgmEmBuxSCpj-150" value="DRTBLLine" style="swimlane;fontStyle=1;align=center;verticalAlign=top;childLayout=stackLayout;horizontal=1;startSize=26;horizontalStack=0;resizeParent=1;resizeParentMax=0;resizeLast=0;collapsible=1;marginBottom=0;fillColor=#6a00ff;strokeColor=#3700CC;fontColor=#ffffff;" parent="WIyWlLk6GJQsqaUBKTNV-1" vertex="1">
                    <mxGeometry x="860" y="295" width="210" height="100" as="geometry"/>
                </mxCell>
                <mxCell id="2oDYCS03bgmEmBuxSCpj-151" value="# float lowbound&#10;# float highbound&#10;# vector&lt;float&gt;Â spectralEfficiencies" style="text;strokeColor=none;fillColor=none;align=left;verticalAlign=top;spacingLeft=4;spacingRight=4;overflow=hidden;rotatable=0;points=[[0,0.5],[1,0.5]];portConstraint=eastwest;" parent="2oDYCS03bgmEmBuxSCpj-150" vertex="1">
                    <mxGeometry y="26" width="210" height="74" as="geometry"/>
                </mxCell>
                <mxCell id="2oDYCS03bgmEmBuxSCpj-152" value="DataRateTable.h" style="swimlane;fontStyle=1;align=center;verticalAlign=top;childLayout=stackLayout;horizontal=1;startSize=26;horizontalStack=0;resizeParent=1;resizeParentMax=0;resizeLast=0;collapsible=1;marginBottom=0;fillColor=#6a00ff;strokeColor=#3700CC;fontColor=#ffffff;" parent="WIyWlLk6GJQsqaUBKTNV-1" vertex="1">
                    <mxGeometry x="480" y="260" width="260" height="170" as="geometry"/>
                </mxCell>
                <mxCell id="2oDYCS03bgmEmBuxSCpj-153" value="#Â float SNRLowBound&#10;# float SNRHighBound&#10;# vector&lt;DRTBLLine&gt; table" style="text;strokeColor=none;fillColor=none;align=left;verticalAlign=top;spacingLeft=4;spacingRight=4;overflow=hidden;rotatable=0;points=[[0,0.5],[1,0.5]];portConstraint=eastwest;" parent="2oDYCS03bgmEmBuxSCpj-152" vertex="1">
                    <mxGeometry y="26" width="260" height="64" as="geometry"/>
                </mxCell>
                <mxCell id="2oDYCS03bgmEmBuxSCpj-154" value="" style="line;strokeWidth=1;fillColor=none;align=left;verticalAlign=middle;spacingTop=-1;spacingLeft=3;spacingRight=3;rotatable=0;labelPosition=right;points=[];portConstraint=eastwest;" parent="2oDYCS03bgmEmBuxSCpj-152" vertex="1">
                    <mxGeometry y="90" width="260" height="8" as="geometry"/>
                </mxCell>
                <mxCell id="2oDYCS03bgmEmBuxSCpj-155" value="# friend bool Setup::GUIentryPoint()&#10;# bool loadDRTBL()&#10;+ int getDataRate(float, int)" style="text;strokeColor=none;fillColor=none;align=left;verticalAlign=top;spacingLeft=4;spacingRight=4;overflow=hidden;rotatable=0;points=[[0,0.5],[1,0.5]];portConstraint=eastwest;" parent="2oDYCS03bgmEmBuxSCpj-152" vertex="1">
                    <mxGeometry y="98" width="260" height="72" as="geometry"/>
                </mxCell>
                <mxCell id="2oDYCS03bgmEmBuxSCpj-157" value="EnvironmentController.h" style="swimlane;fontStyle=1;align=center;verticalAlign=top;childLayout=stackLayout;horizontal=1;startSize=26;horizontalStack=0;resizeParent=1;resizeParentMax=0;resizeLast=0;collapsible=1;marginBottom=0;fillColor=#00E84D;strokeColor=#00E84D;" parent="WIyWlLk6GJQsqaUBKTNV-1" vertex="1">
                    <mxGeometry x="1750" y="2210" width="450" height="390" as="geometry"/>
                </mxCell>
                <mxCell id="2oDYCS03bgmEmBuxSCpj-158" value="#Â vector&lt;BSFailureParams&gt; BSRegionControlInfo&#10;# float averageUEStateContribution" style="text;strokeColor=none;fillColor=none;align=left;verticalAlign=top;spacingLeft=4;spacingRight=4;overflow=hidden;rotatable=0;points=[[0,0.5],[1,0.5]];portConstraint=eastwest;" parent="2oDYCS03bgmEmBuxSCpj-157" vertex="1">
                    <mxGeometry y="26" width="450" height="64" as="geometry"/>
                </mxCell>
                <mxCell id="2oDYCS03bgmEmBuxSCpj-159" value="" style="line;strokeWidth=1;fillColor=none;align=left;verticalAlign=middle;spacingTop=-1;spacingLeft=3;spacingRight=3;rotatable=0;labelPosition=right;points=[];portConstraint=eastwest;" parent="2oDYCS03bgmEmBuxSCpj-157" vertex="1">
                    <mxGeometry y="90" width="450" height="8" as="geometry"/>
                </mxCell>
                <mxCell id="2oDYCS03bgmEmBuxSCpj-160" value="# bool checkBSFPValidity()&#10;# void calculateUEContrib()&#10;# void updateCurrentStates()&#10;# void channelFluctuation()&#10;# void DRFluctuation()&#10;# void UpdateUserLoc()&#10;# void rampingState(BSFailureParams, int)&#10;# void restoreState(BSFailureParams)&#10;# void modifyState(BSFailureParams, float)&#10;# void incrementDemands(BSFailureParams, int, float)&#10;# void decrementDemands(BSFailureParams, int, float)&#10;# void addUsers(BSFailureParams, int, float)&#10;# void removeUsers(BSFailureParams, int, float)&#10;+ bool ECInitialization(vector&lt;BSFailureParams&gt;)&#10;+ void ECUpdate()&#10;+ const BSstatus&amp; getCurrentBSStatus(int);&#10;+ const BSstatus&amp; getEndBSStatus(int)" style="text;strokeColor=none;fillColor=none;align=left;verticalAlign=top;spacingLeft=4;spacingRight=4;overflow=hidden;rotatable=0;points=[[0,0.5],[1,0.5]];portConstraint=eastwest;" parent="2oDYCS03bgmEmBuxSCpj-157" vertex="1">
                    <mxGeometry y="98" width="450" height="292" as="geometry"/>
                </mxCell>
                <mxCell id="2oDYCS03bgmEmBuxSCpj-161" value="FileIO.h" style="swimlane;fontStyle=1;align=center;verticalAlign=top;childLayout=stackLayout;horizontal=1;startSize=26;horizontalStack=0;resizeParent=1;resizeParentMax=0;resizeLast=0;collapsible=1;marginBottom=0;fillColor=#00E84D;strokeColor=#00E84D;" parent="WIyWlLk6GJQsqaUBKTNV-1" vertex="1">
                    <mxGeometry x="1870" y="890" width="260" height="580" as="geometry"/>
                </mxCell>
                <mxCell id="2oDYCS03bgmEmBuxSCpj-162" value="# char&#9;filePathSlash&#10;# bool&#9;splitLogFiles&#10;# int logCount&#10;# int logRowCount&#10;# string programPath&#10;# string dataRateTableFilePath&#10;# string logFilePath&#10;# string simulationSaveName&#10;# int lineCounter&#10;+ int AP_MaxLogLines&#10;+ string defaultDRTBLName&#10;+ string DRTBLSignature&#10;+ map&lt;int, int&gt; dict_time2pos" style="text;strokeColor=none;fillColor=none;align=left;verticalAlign=top;spacingLeft=4;spacingRight=4;overflow=hidden;rotatable=0;points=[[0,0.5],[1,0.5]];portConstraint=eastwest;" parent="2oDYCS03bgmEmBuxSCpj-161" vertex="1">
                    <mxGeometry y="26" width="260" height="214" as="geometry"/>
                </mxCell>
                <mxCell id="2oDYCS03bgmEmBuxSCpj-163" value="" style="line;strokeWidth=1;fillColor=none;align=left;verticalAlign=middle;spacingTop=-1;spacingLeft=3;spacingRight=3;rotatable=0;labelPosition=right;points=[];portConstraint=eastwest;" parent="2oDYCS03bgmEmBuxSCpj-161" vertex="1">
                    <mxGeometry y="240" width="260" height="8" as="geometry"/>
                </mxCell>
                <mxCell id="2oDYCS03bgmEmBuxSCpj-164" value="# void setSimSaveFromFP(string)&#10;# void setDRTBLFP(string)&#10;# bool fixDRTBLFile()&#10;# void incrementLogCount()&#10;# void incrementLogRowCount()&#10;# void resetLogRowCount()&#10;+ string getDRTBLFP()&#10;+ string getProgramFP()&#10;+ string getSimSaveFP()&#10;+ string&amp; getSimName()&#10;+ void setFPSlash(char)&#10;+ void setProgramFP(char)&#10;+ void setSimulationSaveName(string)&#10;+ void resetLog()&#10;+ bool verifyDRTBLExistence()&#10;+ bool writeInitalSimulationState(string)&#10;+ bool readSaveFileIntoSim()&#10;+ bool appendLog(int)&#10;+ bool readLog_Init(int, int)&#10;+ bool readLog_NextLine(int, string)&#10;+ bool readLog_NextLine(int, float)&#10;+ int readLog_LineAtPosition(int, float, int)" style="text;strokeColor=none;fillColor=none;align=left;verticalAlign=top;spacingLeft=4;spacingRight=4;overflow=hidden;rotatable=0;points=[[0,0.5],[1,0.5]];portConstraint=eastwest;" parent="2oDYCS03bgmEmBuxSCpj-161" vertex="1">
                    <mxGeometry y="248" width="260" height="332" as="geometry"/>
                </mxCell>
                <mxCell id="2oDYCS03bgmEmBuxSCpj-165" value="IRPManager.h" style="swimlane;fontStyle=1;align=center;verticalAlign=top;childLayout=stackLayout;horizontal=1;startSize=26;horizontalStack=0;resizeParent=1;resizeParentMax=0;resizeLast=0;collapsible=1;marginBottom=0;strokeColor=#00E84D;fillColor=#0000FF;" parent="WIyWlLk6GJQsqaUBKTNV-1" vertex="1">
                    <mxGeometry x="510" y="1169" width="260" height="310" as="geometry"/>
                </mxCell>
                <mxCell id="2oDYCS03bgmEmBuxSCpj-166" value="# NetworkLogBuffer Buffer&#10;# vector&lt;IRP_BSInfo&gt; networkStatuses&#10;# float percentDecrease&#10;# bool doneHealing&#10;# vector&lt;int&gt; helperBSs&#10;# vector&lt;int&gt; disabledBSs" style="text;strokeColor=none;fillColor=none;align=left;verticalAlign=top;spacingLeft=4;spacingRight=4;overflow=hidden;rotatable=0;points=[[0,0.5],[1,0.5]];portConstraint=eastwest;" parent="2oDYCS03bgmEmBuxSCpj-165" vertex="1">
                    <mxGeometry y="26" width="260" height="104" as="geometry"/>
                </mxCell>
                <mxCell id="2oDYCS03bgmEmBuxSCpj-167" value="" style="line;strokeWidth=1;fillColor=none;align=left;verticalAlign=middle;spacingTop=-1;spacingLeft=3;spacingRight=3;rotatable=0;labelPosition=right;points=[];portConstraint=eastwest;" parent="2oDYCS03bgmEmBuxSCpj-165" vertex="1">
                    <mxGeometry y="130" width="260" height="8" as="geometry"/>
                </mxCell>
                <mxCell id="2oDYCS03bgmEmBuxSCpj-168" value="+ void InitializeIRPManager()&#10;+ NetworkLogBuffer getBuffer()&#10;+ void dataAnalysis()&#10;+ void IRPManagerUpdate()&#10;+ void IRPDataCollection()&#10;+ void PRINTDEBUG()&#10;+ void checkStatus()&#10;+ void offloadUser()&#10;+ void offloadUserKPIs()&#10;+ void finishMovingUsers()" style="text;strokeColor=none;fillColor=none;align=left;verticalAlign=top;spacingLeft=4;spacingRight=4;overflow=hidden;rotatable=0;points=[[0,0.5],[1,0.5]];portConstraint=eastwest;" parent="2oDYCS03bgmEmBuxSCpj-165" vertex="1">
                    <mxGeometry y="138" width="260" height="172" as="geometry"/>
                </mxCell>
                <mxCell id="2oDYCS03bgmEmBuxSCpj-169" value="NetworkLogBuffer.h" style="swimlane;fontStyle=1;align=center;verticalAlign=top;childLayout=stackLayout;horizontal=1;startSize=26;horizontalStack=0;resizeParent=1;resizeParentMax=0;resizeLast=0;collapsible=1;marginBottom=0;strokeColor=#00E84D;fillColor=#0000FF;" parent="WIyWlLk6GJQsqaUBKTNV-1" vertex="1">
                    <mxGeometry x="900" y="1220" width="260" height="220" as="geometry"/>
                </mxCell>
                <mxCell id="2oDYCS03bgmEmBuxSCpj-170" value="# int windowSizeInTicks&#10;# list&lt;TickData&gt; TickBuffer" style="text;strokeColor=none;fillColor=none;align=left;verticalAlign=top;spacingLeft=4;spacingRight=4;overflow=hidden;rotatable=0;points=[[0,0.5],[1,0.5]];portConstraint=eastwest;" parent="2oDYCS03bgmEmBuxSCpj-169" vertex="1">
                    <mxGeometry y="26" width="260" height="64" as="geometry"/>
                </mxCell>
                <mxCell id="2oDYCS03bgmEmBuxSCpj-171" value="" style="line;strokeWidth=1;fillColor=none;align=left;verticalAlign=middle;spacingTop=-1;spacingLeft=3;spacingRight=3;rotatable=0;labelPosition=right;points=[];portConstraint=eastwest;" parent="2oDYCS03bgmEmBuxSCpj-169" vertex="1">
                    <mxGeometry y="90" width="260" height="8" as="geometry"/>
                </mxCell>
                <mxCell id="2oDYCS03bgmEmBuxSCpj-172" value="+ NetworkLogBuffer()&#10;+ begin()Â &#10;+ end()Â &#10;+ void push_back(TickData)&#10;+ int size()&#10;+ TickData getLastTick()Â &#10;+ void setWindowSize(int)" style="text;strokeColor=none;fillColor=none;align=left;verticalAlign=top;spacingLeft=4;spacingRight=4;overflow=hidden;rotatable=0;points=[[0,0.5],[1,0.5]];portConstraint=eastwest;" parent="2oDYCS03bgmEmBuxSCpj-169" vertex="1">
                    <mxGeometry y="98" width="260" height="122" as="geometry"/>
                </mxCell>
                <mxCell id="2oDYCS03bgmEmBuxSCpj-173" value="Setup.h" style="swimlane;fontStyle=1;align=center;verticalAlign=top;childLayout=stackLayout;horizontal=1;startSize=26;horizontalStack=0;resizeParent=1;resizeParentMax=0;resizeLast=0;collapsible=1;marginBottom=0;fillColor=#00E84D;strokeColor=#00E84D;" parent="WIyWlLk6GJQsqaUBKTNV-1" vertex="1">
                    <mxGeometry x="480" y="20" width="260" height="98" as="geometry"/>
                </mxCell>
                <mxCell id="2oDYCS03bgmEmBuxSCpj-174" value="+ bool GUIentryPoint()&#10;+ bool DEBUGentryPoint(int, char)&#10;+ bool createTestGUIData(int, char)" style="text;strokeColor=none;fillColor=none;align=left;verticalAlign=top;spacingLeft=4;spacingRight=4;overflow=hidden;rotatable=0;points=[[0,0.5],[1,0.5]];portConstraint=eastwest;" parent="2oDYCS03bgmEmBuxSCpj-173" vertex="1">
                    <mxGeometry y="26" width="260" height="64" as="geometry"/>
                </mxCell>
                <mxCell id="2oDYCS03bgmEmBuxSCpj-175" value="" style="line;strokeWidth=1;fillColor=none;align=left;verticalAlign=middle;spacingTop=-1;spacingLeft=3;spacingRight=3;rotatable=0;labelPosition=right;points=[];portConstraint=eastwest;" parent="2oDYCS03bgmEmBuxSCpj-173" vertex="1">
                    <mxGeometry y="90" width="260" height="8" as="geometry"/>
                </mxCell>
                <mxCell id="2oDYCS03bgmEmBuxSCpj-177" value="UELogData.h" style="swimlane;fontStyle=1;align=center;verticalAlign=top;childLayout=stackLayout;horizontal=1;startSize=26;horizontalStack=0;resizeParent=1;resizeParentMax=0;resizeLast=0;collapsible=1;marginBottom=0;fillColor=#00E84D;strokeColor=#00E84D;" parent="WIyWlLk6GJQsqaUBKTNV-1" vertex="1">
                    <mxGeometry x="1290" y="979" width="330" height="500" as="geometry"/>
                </mxCell>
                <mxCell id="2oDYCS03bgmEmBuxSCpj-178" value="+ int TIME&#10;+ int BS_ID&#10;+ int BS_STATUS&#10;+ float BS_LOC_X&#10;+ float BS_LOC_Y&#10;+ int ANT_ID&#10;+ float ANT_SEC&#10;+ int TRX_ID&#10;+ float TRX_X&#10;+ float TRX_Y&#10;+ float TRX_ANG&#10;+ int UE_ID&#10;+ int UE_MID&#10;+ float UE_LOC_X&#10;+ float UE_LOC_Y&#10;+ int MAX_DR&#10;+ int DEMAND_DR&#10;+ int REAL_DR&#10;+ float TRANS_PWR&#10;+ float REC_PWR&#10;+ float RSRP&#10;+ float RSSI&#10;+ float RSRQ&#10;+ float DDR&#10;+Â vector&lt;UELogData&gt; TickData" style="text;strokeColor=none;fillColor=none;align=left;verticalAlign=top;spacingLeft=4;spacingRight=4;overflow=hidden;rotatable=0;points=[[0,0.5],[1,0.5]];portConstraint=eastwest;" parent="2oDYCS03bgmEmBuxSCpj-177" vertex="1">
                    <mxGeometry y="26" width="330" height="374" as="geometry"/>
                </mxCell>
                <mxCell id="2oDYCS03bgmEmBuxSCpj-179" value="" style="line;strokeWidth=1;fillColor=none;align=left;verticalAlign=middle;spacingTop=-1;spacingLeft=3;spacingRight=3;rotatable=0;labelPosition=right;points=[];portConstraint=eastwest;" parent="2oDYCS03bgmEmBuxSCpj-177" vertex="1">
                    <mxGeometry y="400" width="330" height="8" as="geometry"/>
                </mxCell>
                <mxCell id="2oDYCS03bgmEmBuxSCpj-180" value="+ UELogData()&#10;+ UELogData(int, int, int, float, float ,&#10;Â Â Â Â Â int, float, int, float , float , float , int, int,&#10;&#9;&#9;&#9;Â  float, float , int, int, int, float, float, float, float, float, float)&#10;" style="text;strokeColor=none;fillColor=none;align=left;verticalAlign=top;spacingLeft=4;spacingRight=4;overflow=hidden;rotatable=0;points=[[0,0.5],[1,0.5]];portConstraint=eastwest;" parent="2oDYCS03bgmEmBuxSCpj-177" vertex="1">
                    <mxGeometry y="408" width="330" height="92" as="geometry"/>
                </mxCell>
                <mxCell id="2oDYCS03bgmEmBuxSCpj-181" value="UserEquipment.h" style="swimlane;fontStyle=1;align=center;verticalAlign=top;childLayout=stackLayout;horizontal=1;startSize=26;horizontalStack=0;resizeParent=1;resizeParentMax=0;resizeLast=0;collapsible=1;marginBottom=0;strokeColor=#00E84D;fillColor=#FF99FF;" parent="WIyWlLk6GJQsqaUBKTNV-1" vertex="1">
                    <mxGeometry x="510" y="1650" width="330" height="400" as="geometry"/>
                </mxCell>
                <mxCell id="2oDYCS03bgmEmBuxSCpj-182" value="# size_t userID&#10;# size_t mobilityID&#10;# Coordf loc&#10;# uint32_t dataDemanded&#10;# uint32_t dataReceived&#10;# float powerReceived&#10;# vector&lt;uint32_t&gt; possibleMaxDrs" style="text;strokeColor=none;fillColor=none;align=left;verticalAlign=top;spacingLeft=4;spacingRight=4;overflow=hidden;rotatable=0;points=[[0,0.5],[1,0.5]];portConstraint=eastwest;" parent="2oDYCS03bgmEmBuxSCpj-181" vertex="1">
                    <mxGeometry y="26" width="330" height="114" as="geometry"/>
                </mxCell>
                <mxCell id="2oDYCS03bgmEmBuxSCpj-183" value="" style="line;strokeWidth=1;fillColor=none;align=left;verticalAlign=middle;spacingTop=-1;spacingLeft=3;spacingRight=3;rotatable=0;labelPosition=right;points=[];portConstraint=eastwest;" parent="2oDYCS03bgmEmBuxSCpj-181" vertex="1">
                    <mxGeometry y="140" width="330" height="8" as="geometry"/>
                </mxCell>
                <mxCell id="2oDYCS03bgmEmBuxSCpj-184" value="# float calculateReceivedPower(float, float)&#10;+ UserEquipment(Coord&lt;float&gt;, int, int, vector&lt;int&gt; , int)&#10;+ int getUserID()Â &#10;+ int getMobilityID()&#10;+ Coord&lt;float&gt; getLoc()&#10;+ int getDemand()&#10;+ int getMaxDr(int)&#10;+ int getMaxDr()&#10;+ float getRecPwr()&#10;+ int getRecDR()&#10;+ void setDemand(int)&#10;+ void setLoc(Coord&lt;float&gt;)&#10;+ bool incrementDemand()&#10;+ bool decrementDemand()&#10;+ void receive(int, float, float)&#10;+ bool Update()" style="text;strokeColor=none;fillColor=none;align=left;verticalAlign=top;spacingLeft=4;spacingRight=4;overflow=hidden;rotatable=0;points=[[0,0.5],[1,0.5]];portConstraint=eastwest;" parent="2oDYCS03bgmEmBuxSCpj-181" vertex="1">
                    <mxGeometry y="148" width="330" height="252" as="geometry"/>
                </mxCell>
                <mxCell id="2oDYCS03bgmEmBuxSCpj-194" style="edgeStyle=orthogonalEdgeStyle;rounded=0;orthogonalLoop=1;jettySize=auto;html=1;entryX=0;entryY=0.5;entryDx=0;entryDy=0;" parent="WIyWlLk6GJQsqaUBKTNV-1" source="2oDYCS03bgmEmBuxSCpj-132" target="2oDYCS03bgmEmBuxSCpj-174" edge="1">
                    <mxGeometry relative="1" as="geometry"/>
                </mxCell>
                <mxCell id="2oDYCS03bgmEmBuxSCpj-195" style="edgeStyle=orthogonalEdgeStyle;rounded=0;orthogonalLoop=1;jettySize=auto;html=1;entryX=0.25;entryY=1;entryDx=0;entryDy=0;" parent="WIyWlLk6GJQsqaUBKTNV-1" source="2oDYCS03bgmEmBuxSCpj-153" target="2oDYCS03bgmEmBuxSCpj-173" edge="1">
                    <mxGeometry relative="1" as="geometry"/>
                </mxCell>
                <mxCell id="2oDYCS03bgmEmBuxSCpj-196" style="edgeStyle=orthogonalEdgeStyle;rounded=0;orthogonalLoop=1;jettySize=auto;html=1;exitX=1.003;exitY=0.972;exitDx=0;exitDy=0;entryX=0;entryY=0.5;entryDx=0;entryDy=0;exitPerimeter=0;" parent="WIyWlLk6GJQsqaUBKTNV-1" source="2oDYCS03bgmEmBuxSCpj-132" target="2oDYCS03bgmEmBuxSCpj-155" edge="1">
                    <mxGeometry relative="1" as="geometry"/>
                </mxCell>
                <mxCell id="2oDYCS03bgmEmBuxSCpj-197" style="edgeStyle=orthogonalEdgeStyle;rounded=0;orthogonalLoop=1;jettySize=auto;html=1;" parent="WIyWlLk6GJQsqaUBKTNV-1" source="2oDYCS03bgmEmBuxSCpj-134" target="2oDYCS03bgmEmBuxSCpj-166" edge="1">
                    <mxGeometry relative="1" as="geometry">
                        <mxPoint x="404" y="1247" as="sourcePoint"/>
                    </mxGeometry>
                </mxCell>
                <mxCell id="2oDYCS03bgmEmBuxSCpj-199" style="edgeStyle=orthogonalEdgeStyle;rounded=0;orthogonalLoop=1;jettySize=auto;html=1;entryX=1;entryY=0.5;entryDx=0;entryDy=0;" parent="WIyWlLk6GJQsqaUBKTNV-1" source="2oDYCS03bgmEmBuxSCpj-168" target="57" edge="1">
                    <mxGeometry relative="1" as="geometry"/>
                </mxCell>
                <mxCell id="2oDYCS03bgmEmBuxSCpj-200" style="edgeStyle=orthogonalEdgeStyle;rounded=0;orthogonalLoop=1;jettySize=auto;html=1;entryX=-0.012;entryY=0.306;entryDx=0;entryDy=0;entryPerimeter=0;" parent="WIyWlLk6GJQsqaUBKTNV-1" source="2oDYCS03bgmEmBuxSCpj-168" target="2oDYCS03bgmEmBuxSCpj-172" edge="1">
                    <mxGeometry relative="1" as="geometry"/>
                </mxCell>
                <mxCell id="2oDYCS03bgmEmBuxSCpj-201" style="edgeStyle=orthogonalEdgeStyle;rounded=0;orthogonalLoop=1;jettySize=auto;html=1;" parent="WIyWlLk6GJQsqaUBKTNV-1" source="2oDYCS03bgmEmBuxSCpj-170" edge="1">
                    <mxGeometry relative="1" as="geometry">
                        <mxPoint x="1288" y="1278" as="targetPoint"/>
                    </mxGeometry>
                </mxCell>
                <mxCell id="2oDYCS03bgmEmBuxSCpj-202" style="edgeStyle=orthogonalEdgeStyle;rounded=0;orthogonalLoop=1;jettySize=auto;html=1;exitX=1.009;exitY=0.37;exitDx=0;exitDy=0;exitPerimeter=0;" parent="WIyWlLk6GJQsqaUBKTNV-1" source="2oDYCS03bgmEmBuxSCpj-134" target="2oDYCS03bgmEmBuxSCpj-178" edge="1">
                    <mxGeometry relative="1" as="geometry">
                        <Array as="points">
                            <mxPoint x="1220" y="770"/>
                            <mxPoint x="1220" y="1192"/>
                        </Array>
                    </mxGeometry>
                </mxCell>
                <mxCell id="2oDYCS03bgmEmBuxSCpj-203" style="edgeStyle=orthogonalEdgeStyle;rounded=0;orthogonalLoop=1;jettySize=auto;html=1;exitX=1;exitY=0.5;exitDx=0;exitDy=0;" parent="WIyWlLk6GJQsqaUBKTNV-1" source="59" edge="1">
                    <mxGeometry relative="1" as="geometry">
                        <mxPoint x="509.9999999999998" y="1864" as="targetPoint"/>
                    </mxGeometry>
                </mxCell>
                <mxCell id="2oDYCS03bgmEmBuxSCpj-204" style="edgeStyle=orthogonalEdgeStyle;rounded=0;orthogonalLoop=1;jettySize=auto;html=1;entryX=0;entryY=0.5;entryDx=0;entryDy=0;" parent="WIyWlLk6GJQsqaUBKTNV-1" edge="1">
                    <mxGeometry relative="1" as="geometry">
                        <mxPoint x="400" y="1276" as="sourcePoint"/>
                        <mxPoint x="509.9999999999998" y="1748" as="targetPoint"/>
                        <Array as="points">
                            <mxPoint x="460" y="1276"/>
                            <mxPoint x="460" y="1748"/>
                        </Array>
                    </mxGeometry>
                </mxCell>
                <mxCell id="2oDYCS03bgmEmBuxSCpj-206" value="Coord.h" style="swimlane;fontStyle=1;align=center;verticalAlign=top;childLayout=stackLayout;horizontal=1;startSize=26;horizontalStack=0;resizeParent=1;resizeParentMax=0;resizeLast=0;collapsible=1;marginBottom=0;strokeColor=#00E84D;fillColor=#FF9933;" parent="WIyWlLk6GJQsqaUBKTNV-1" vertex="1">
                    <mxGeometry x="1420" y="1730" width="260" height="170" as="geometry"/>
                </mxCell>
                <mxCell id="2oDYCS03bgmEmBuxSCpj-207" value="+ int x&#10;+ int y" style="text;strokeColor=none;fillColor=none;align=left;verticalAlign=top;spacingLeft=4;spacingRight=4;overflow=hidden;rotatable=0;points=[[0,0.5],[1,0.5]];portConstraint=eastwest;" parent="2oDYCS03bgmEmBuxSCpj-206" vertex="1">
                    <mxGeometry y="26" width="260" height="64" as="geometry"/>
                </mxCell>
                <mxCell id="2oDYCS03bgmEmBuxSCpj-208" value="" style="line;strokeWidth=1;fillColor=none;align=left;verticalAlign=middle;spacingTop=-1;spacingLeft=3;spacingRight=3;rotatable=0;labelPosition=right;points=[];portConstraint=eastwest;" parent="2oDYCS03bgmEmBuxSCpj-206" vertex="1">
                    <mxGeometry y="90" width="260" height="8" as="geometry"/>
                </mxCell>
                <mxCell id="2oDYCS03bgmEmBuxSCpj-209" value="+ Coord()&#10;+ Coord(int,int)" style="text;strokeColor=none;fillColor=none;align=left;verticalAlign=top;spacingLeft=4;spacingRight=4;overflow=hidden;rotatable=0;points=[[0,0.5],[1,0.5]];portConstraint=eastwest;" parent="2oDYCS03bgmEmBuxSCpj-206" vertex="1">
                    <mxGeometry y="98" width="260" height="72" as="geometry"/>
                </mxCell>
                <mxCell id="2oDYCS03bgmEmBuxSCpj-210" style="edgeStyle=orthogonalEdgeStyle;rounded=0;orthogonalLoop=1;jettySize=auto;html=1;exitX=1.001;exitY=0.117;exitDx=0;exitDy=0;exitPerimeter=0;" parent="WIyWlLk6GJQsqaUBKTNV-1" source="2oDYCS03bgmEmBuxSCpj-184" edge="1">
                    <mxGeometry relative="1" as="geometry">
                        <mxPoint x="840" y="1864" as="sourcePoint"/>
                        <mxPoint x="1420" y="1827" as="targetPoint"/>
                        <Array as="points">
                            <mxPoint x="910" y="1828"/>
                        </Array>
                    </mxGeometry>
                </mxCell>
                <mxCell id="2oDYCS03bgmEmBuxSCpj-211" style="edgeStyle=orthogonalEdgeStyle;rounded=0;orthogonalLoop=1;jettySize=auto;html=1;exitX=-0.003;exitY=0.065;exitDx=0;exitDy=0;exitPerimeter=0;entryX=0.007;entryY=1.069;entryDx=0;entryDy=0;entryPerimeter=0;" parent="WIyWlLk6GJQsqaUBKTNV-1" target="2oDYCS03bgmEmBuxSCpj-207" edge="1">
                    <mxGeometry relative="1" as="geometry">
                        <mxPoint x="380" y="1404" as="sourcePoint"/>
                        <Array as="points">
                            <mxPoint x="380" y="1630"/>
                            <mxPoint x="890" y="1630"/>
                            <mxPoint x="890" y="1824"/>
                        </Array>
                    </mxGeometry>
                </mxCell>
                <mxCell id="2oDYCS03bgmEmBuxSCpj-213" style="edgeStyle=orthogonalEdgeStyle;rounded=0;orthogonalLoop=1;jettySize=auto;html=1;exitX=0.498;exitY=1.008;exitDx=0;exitDy=0;exitPerimeter=0;" parent="WIyWlLk6GJQsqaUBKTNV-1" source="2oDYCS03bgmEmBuxSCpj-168" edge="1">
                    <mxGeometry relative="1" as="geometry">
                        <mxPoint x="332" y="1690" as="targetPoint"/>
                        <Array as="points">
                            <mxPoint x="640" y="1520"/>
                            <mxPoint x="500" y="1520"/>
                            <mxPoint x="500" y="1690"/>
                            <mxPoint x="332" y="1690"/>
                        </Array>
                    </mxGeometry>
                </mxCell>
                <mxCell id="2oDYCS03bgmEmBuxSCpj-217" style="edgeStyle=orthogonalEdgeStyle;rounded=0;orthogonalLoop=1;jettySize=auto;html=1;exitX=0.522;exitY=1.003;exitDx=0;exitDy=0;entryX=0.5;entryY=0;entryDx=0;entryDy=0;exitPerimeter=0;" parent="WIyWlLk6GJQsqaUBKTNV-1" source="78" target="50" edge="1">
                    <mxGeometry relative="1" as="geometry"/>
                </mxCell>
                <mxCell id="2oDYCS03bgmEmBuxSCpj-219" style="edgeStyle=orthogonalEdgeStyle;rounded=0;orthogonalLoop=1;jettySize=auto;html=1;exitX=0.529;exitY=1.002;exitDx=0;exitDy=0;entryX=0.5;entryY=0;entryDx=0;entryDy=0;exitPerimeter=0;" parent="WIyWlLk6GJQsqaUBKTNV-1" source="59" target="75" edge="1">
                    <mxGeometry relative="1" as="geometry"/>
                </mxCell>
                <mxCell id="2oDYCS03bgmEmBuxSCpj-220" style="edgeStyle=orthogonalEdgeStyle;rounded=0;orthogonalLoop=1;jettySize=auto;html=1;exitX=1;exitY=0.708;exitDx=0;exitDy=0;exitPerimeter=0;" parent="WIyWlLk6GJQsqaUBKTNV-1" source="59" target="51" edge="1">
                    <mxGeometry relative="1" as="geometry"/>
                </mxCell>
                <mxCell id="2oDYCS03bgmEmBuxSCpj-221" style="edgeStyle=orthogonalEdgeStyle;rounded=0;orthogonalLoop=1;jettySize=auto;html=1;exitX=0.757;exitY=1.002;exitDx=0;exitDy=0;entryX=0;entryY=0.5;entryDx=0;entryDy=0;exitPerimeter=0;" parent="WIyWlLk6GJQsqaUBKTNV-1" source="59" target="28" edge="1">
                    <mxGeometry relative="1" as="geometry">
                        <Array as="points">
                            <mxPoint x="267" y="2150"/>
                            <mxPoint x="420" y="2150"/>
                            <mxPoint x="420" y="2168"/>
                        </Array>
                    </mxGeometry>
                </mxCell>
                <mxCell id="2oDYCS03bgmEmBuxSCpj-222" style="edgeStyle=orthogonalEdgeStyle;rounded=0;orthogonalLoop=1;jettySize=auto;html=1;entryX=0.5;entryY=0;entryDx=0;entryDy=0;exitX=0.55;exitY=1.018;exitDx=0;exitDy=0;exitPerimeter=0;" parent="WIyWlLk6GJQsqaUBKTNV-1" source="30" target="31" edge="1">
                    <mxGeometry relative="1" as="geometry">
                        <mxPoint x="610" y="2360" as="sourcePoint"/>
                        <Array as="points">
                            <mxPoint x="609" y="2423"/>
                            <mxPoint x="610" y="2423"/>
                        </Array>
                    </mxGeometry>
                </mxCell>
                <mxCell id="2oDYCS03bgmEmBuxSCpj-223" style="edgeStyle=orthogonalEdgeStyle;rounded=0;orthogonalLoop=1;jettySize=auto;html=1;entryX=0.5;entryY=0;entryDx=0;entryDy=0;" parent="WIyWlLk6GJQsqaUBKTNV-1" target="89" edge="1">
                    <mxGeometry relative="1" as="geometry">
                        <mxPoint x="625" y="2701" as="sourcePoint"/>
                        <Array as="points">
                            <mxPoint x="625" y="2710"/>
                            <mxPoint x="625" y="2710"/>
                        </Array>
                    </mxGeometry>
                </mxCell>
                <mxCell id="2oDYCS03bgmEmBuxSCpj-224" style="edgeStyle=orthogonalEdgeStyle;rounded=0;orthogonalLoop=1;jettySize=auto;html=1;exitX=0.88;exitY=1.002;exitDx=0;exitDy=0;entryX=0;entryY=0.5;entryDx=0;entryDy=0;exitPerimeter=0;" parent="WIyWlLk6GJQsqaUBKTNV-1" source="59" target="32" edge="1">
                    <mxGeometry relative="1" as="geometry">
                        <Array as="points">
                            <mxPoint x="299" y="2060"/>
                            <mxPoint x="380" y="2060"/>
                            <mxPoint x="380" y="2548"/>
                        </Array>
                    </mxGeometry>
                </mxCell>
                <mxCell id="2oDYCS03bgmEmBuxSCpj-225" style="edgeStyle=orthogonalEdgeStyle;rounded=0;orthogonalLoop=1;jettySize=auto;html=1;exitX=1;exitY=0.5;exitDx=0;exitDy=0;entryX=-0.001;entryY=-0.039;entryDx=0;entryDy=0;entryPerimeter=0;" parent="WIyWlLk6GJQsqaUBKTNV-1" source="28" target="2oDYCS03bgmEmBuxSCpj-209" edge="1">
                    <mxGeometry relative="1" as="geometry">
                        <Array as="points">
                            <mxPoint x="1360" y="2168"/>
                            <mxPoint x="1360" y="1825"/>
                        </Array>
                    </mxGeometry>
                </mxCell>
                <mxCell id="2oDYCS03bgmEmBuxSCpj-228" style="edgeStyle=orthogonalEdgeStyle;rounded=0;orthogonalLoop=1;jettySize=auto;html=1;exitX=1;exitY=0.5;exitDx=0;exitDy=0;entryX=0.003;entryY=0.475;entryDx=0;entryDy=0;entryPerimeter=0;" parent="WIyWlLk6GJQsqaUBKTNV-1" source="32" target="2oDYCS03bgmEmBuxSCpj-208" edge="1">
                    <mxGeometry relative="1" as="geometry">
                        <Array as="points">
                            <mxPoint x="1390" y="2548"/>
                            <mxPoint x="1390" y="1824"/>
                        </Array>
                    </mxGeometry>
                </mxCell>
                <mxCell id="2oDYCS03bgmEmBuxSCpj-229" style="edgeStyle=orthogonalEdgeStyle;rounded=0;orthogonalLoop=1;jettySize=auto;html=1;exitX=1;exitY=0.5;exitDx=0;exitDy=0;entryX=0.001;entryY=0.475;entryDx=0;entryDy=0;entryPerimeter=0;" parent="WIyWlLk6GJQsqaUBKTNV-1" source="53" target="2oDYCS03bgmEmBuxSCpj-208" edge="1">
                    <mxGeometry relative="1" as="geometry">
                        <Array as="points">
                            <mxPoint x="270" y="2750"/>
                            <mxPoint x="1410" y="2750"/>
                            <mxPoint x="1410" y="1824"/>
                        </Array>
                    </mxGeometry>
                </mxCell>
                <mxCell id="2oDYCS03bgmEmBuxSCpj-230" style="edgeStyle=orthogonalEdgeStyle;rounded=0;orthogonalLoop=1;jettySize=auto;html=1;exitX=1.008;exitY=0.182;exitDx=0;exitDy=0;exitPerimeter=0;" parent="WIyWlLk6GJQsqaUBKTNV-1" source="2oDYCS03bgmEmBuxSCpj-134" target="2oDYCS03bgmEmBuxSCpj-144" edge="1">
                    <mxGeometry relative="1" as="geometry"/>
                </mxCell>
                <mxCell id="2oDYCS03bgmEmBuxSCpj-231" style="edgeStyle=orthogonalEdgeStyle;rounded=0;orthogonalLoop=1;jettySize=auto;html=1;exitX=1;exitY=0.5;exitDx=0;exitDy=0;entryX=0;entryY=0.5;entryDx=0;entryDy=0;" parent="WIyWlLk6GJQsqaUBKTNV-1" source="2oDYCS03bgmEmBuxSCpj-153" target="2oDYCS03bgmEmBuxSCpj-151" edge="1">
                    <mxGeometry relative="1" as="geometry"/>
                </mxCell>
                <mxCell id="2oDYCS03bgmEmBuxSCpj-237" style="edgeStyle=orthogonalEdgeStyle;rounded=0;orthogonalLoop=1;jettySize=auto;html=1;" parent="WIyWlLk6GJQsqaUBKTNV-1" source="2oDYCS03bgmEmBuxSCpj-160" target="2oDYCS03bgmEmBuxSCpj-147" edge="1">
                    <mxGeometry relative="1" as="geometry">
                        <Array as="points">
                            <mxPoint x="1640" y="2333"/>
                            <mxPoint x="1640" y="2333"/>
                        </Array>
                    </mxGeometry>
                </mxCell>
                <mxCell id="2oDYCS03bgmEmBuxSCpj-238" style="edgeStyle=orthogonalEdgeStyle;rounded=0;orthogonalLoop=1;jettySize=auto;html=1;entryX=1.009;entryY=0.454;entryDx=0;entryDy=0;entryPerimeter=0;" parent="WIyWlLk6GJQsqaUBKTNV-1" source="2oDYCS03bgmEmBuxSCpj-160" target="2oDYCS03bgmEmBuxSCpj-134" edge="1">
                    <mxGeometry relative="1" as="geometry">
                        <mxPoint x="1700" y="1640" as="targetPoint"/>
                        <Array as="points">
                            <mxPoint x="1710" y="2454"/>
                            <mxPoint x="1710" y="854"/>
                        </Array>
                    </mxGeometry>
                </mxCell>
                <mxCell id="2oDYCS03bgmEmBuxSCpj-239" style="edgeStyle=orthogonalEdgeStyle;rounded=0;orthogonalLoop=1;jettySize=auto;html=1;" parent="WIyWlLk6GJQsqaUBKTNV-1" source="2oDYCS03bgmEmBuxSCpj-164" target="2oDYCS03bgmEmBuxSCpj-178" edge="1">
                    <mxGeometry relative="1" as="geometry"/>
                </mxCell>
                <mxCell id="2oDYCS03bgmEmBuxSCpj-240" style="edgeStyle=orthogonalEdgeStyle;rounded=0;orthogonalLoop=1;jettySize=auto;html=1;entryX=1.008;entryY=0.33;entryDx=0;entryDy=0;entryPerimeter=0;" parent="WIyWlLk6GJQsqaUBKTNV-1" source="2oDYCS03bgmEmBuxSCpj-162" target="2oDYCS03bgmEmBuxSCpj-134" edge="1">
                    <mxGeometry relative="1" as="geometry">
                        <Array as="points">
                            <mxPoint x="1830" y="1023"/>
                            <mxPoint x="1830" y="730"/>
                        </Array>
                    </mxGeometry>
                </mxCell>
            </root>
        </mxGraphModel>
    </diagram>
</mxfile>